<?xml version="1.0" encoding="UTF-8"?>
<svg id="Layer_2" data-name="Layer 2" xmlns="http://www.w3.org/2000/svg" viewBox="0 0 334.91 334.9">
  <defs>
    <style>
      .cls-1 {
        fill: #231f20;
      }

      .cls-1, .cls-2, .cls-3 {
        fill-rule: evenodd;
        stroke-width: 0px;
      }

      .cls-2 {
        fill: #fefefe;
      }

      .cls-3 {
        fill: #f13e2d;
      }
    </style>
  </defs>
  <g id="katman_1" data-name="katman 1">
    <g id="katman_2" data-name="katman 2">
      <g id="katman_1-2" data-name="katman 1-2">
        <g>
          <path class="cls-1" d="m334.9,167.94c.99,84.11-67.65,166.01-166.08,166.95C76.34,335.65.76,261.3,0,168.82-.75,76.34,73.6.76,166.08,0c92.48-.76,168.06,73.6,168.82,166.07,0,.62,0,1.24,0,1.86Z"/>
          <path class="cls-3" d="m66.22,39.95c5.69-4.79,11.8-9.05,18.26-12.75,18.88-11.41,39.98-18.67,61.88-21.31,48.81-5.7,92.14,7.3,129.15,39.77,27.46,23.92,45.9,56.53,52.25,92.39,1.22,6.73,2.03,13.52,2.41,20.35.15,2.31.07,2.35-2.06,1.48-11.63-4.72-22.98-10.08-34.71-14.57-9.34-3.64-18.98-6.47-28.81-8.46-1.52-.14-2.73-1.31-2.92-2.82-8.25-30.82-39.92-49.12-70.74-40.87-16.74,4.48-30.59,16.24-37.72,32.03-.47,1.37-1.83,2.25-3.28,2.11-28.62.91-57.01,5.42-84.51,13.43-19.54,5.64-38.61,12.6-57.54,20-.98.38-1.98.73-3.15,1.17-.16-1.93-.11-3.87.16-5.79,2.37-35.77,16.59-69.73,40.42-96.5,1.26-1.45,2.62-2.81,3.94-4.21.59,1-.22,1.62-.67,2.29-4.15,5.8-6.95,12.46-8.19,19.48-1.77,8.14.63,16.63,6.39,22.66,3.33,3.39,7.62,5.7,12.28,6.61,8.79,1.73,17.9.79,26.15-2.72,7.88-3.09,15.04-7.78,21.03-13.76,8.32-7.6,13.81-17.8,15.59-28.93,2.09-15.87-7.12-26.8-21.51-28.84-10.72-1.23-21.54,1.13-30.77,6.71-1.02.56-1.88,1.82-3.34,1.06Z"/>
          <path class="cls-2" d="m326.15,203.39c-1.59,6.71-3.57,13.32-5.95,19.8-3.26,8.98-7.38,17.63-12.29,25.82-.48.78-1.07,1.5-1.61,2.25-1.53,3.29-3.44,6.38-5.69,9.22-6.52,9.36-14.06,17.97-22.47,25.69-20.52,19.09-45.65,32.52-72.92,38.99-8.68,2.06-17.51,3.4-26.41,4.02-3.83.27-7.68.35-11.5.45-5.3.06-10.6-.2-15.86-.77-33.34-3.26-64.86-16.72-90.27-38.54-26.31-22.39-44.78-52.58-52.74-86.2-.44-1.79.07-2.41,1.66-3.01,15.71-5.97,31.61-11.33,47.83-15.72.82-.22,1.65-.44,2.48-.65,15.37-4.14,30.96-7.37,46.71-9.67,10.55-1.55,21.14-2.63,31.77-3.4,4.1-.3,8.21-.38,12.31-.67,1.29-.09,1.68.59,2.13,1.54,13.06,29.02,47.17,41.97,76.19,28.91,4.72-2.12,9.14-4.88,13.13-8.18,4.31-3.44,8.03-7.56,11.02-12.19.52-1.09,1.79-1.61,2.93-1.21,20.17,4.33,39.99,10.19,59.27,17.54,2.98,1.12,5.91,2.38,8.94,3.35,1.58.51,1.68,1.33,1.35,2.65ZM64.47,107.8c11.11.46,22.08-2.67,31.27-8.93,12.12-7.22,21.17-18.63,25.45-32.07,1.93-5.85,2.05-12.14.36-18.06-3.12-10.46-12.8-17.18-24.98-17.5-10.02-.11-19.87,2.61-28.42,7.86-.6.35-1.1,1.01-1.94.85-4.27,3.1-8.3,6.53-12.06,10.24-1.63,1.74-3.26,3.48-4.89,5.21.14.79-.51,1.19-.87,1.7-2.32,3.25-4.27,6.74-5.8,10.42-2.74,6.1-3.71,12.84-2.79,19.47,1.96,12.03,11.61,20.12,24.66,20.82Zm106.17,39.67c.15-20.23,16.66-36.51,36.89-36.36,20.23.15,36.51,16.66,36.36,36.89-.15,20.23-16.66,36.51-36.89,36.36-.26,0-.52,0-.78-.01-19.9-.62-35.68-16.97-35.58-36.88h0Zm8.49-.08c-.18,15.56,12.29,28.32,27.85,28.5,15.56.18,28.32-12.29,28.5-27.85.18-15.56-12.29-28.32-27.85-28.5-.09,0-.19,0-.28,0-15.45-.03-28.05,12.4-28.22,27.85h0Zm26.62,26.23c14.3.84,26.58-10.08,27.41-24.38.84-14.3-10.08-26.58-24.38-27.41-14.3-.84-26.58,10.08-27.41,24.38-.01.23-.02.46-.03.68-.44,14.05,10.38,25.89,24.41,26.73h0Z"/>
        </g>
      </g>
    </g>
  </g>
</svg>