<svg xmlns="http://www.w3.org/2000/svg" viewBox="0 0 486 486">
  <path d="M430.29,83.67H281.86v-6.58c0-10.26-8.3-18.56-18.56-18.56H222.7c-10.26,0-18.56,8.3-18.56,18.56v6.58H55.71c-30.74,0-55.71,24.97-55.71,55.71v290.24c0,30.74,24.97,55.71,55.71,55.71h374.58c30.74,0,55.71-24.97,55.71-55.71V139.38C486,108.64,461.03,83.67,430.29,83.67ZM243,414.87c-47.4,0-85.93-38.53-85.93-85.93s38.53-85.93,85.93-85.93s85.93,38.53,85.93,85.93S290.4,414.87,243,414.87ZM380.29,215.26H105.71v-45.54h274.58V215.26Z"/>
</svg>
