<?xml version="1.0" encoding="utf-8"?>
<!-- Generator: Adobe Illustrator 28.0.0, SVG Export Plug-In . SVG Version: 6.00 Build 0)  -->
<svg version="1.1"
	 id="svg8" xmlns:dc="http://purl.org/dc/elements/1.1/" xmlns:svg="http://www.w3.org/2000/svg" xmlns:cc="http://creativecommons.org/ns#" xmlns:rdf="http://www.w3.org/1999/02/22-rdf-syntax-ns#"
	 xmlns="http://www.w3.org/2000/svg" xmlns:xlink="http://www.w3.org/1999/xlink" x="0px" y="0px" viewBox="0 0 869.5 312"
	 style="enable-background:new 0 0 869.5 312;" xml:space="preserve">
<style type="text/css">
	.st0{fill:#FFEC14;}
	.st1{fill:#23378E;}
</style>
<g id="layer1">
	<g id="g1123">
		<path id="path1094" class="st0" d="M478.8,25.9c0,0-0.2,0.2-0.4,0.4c-0.2,0.2-0.5,0.4-0.7,0.7c-0.2,0.2-0.4,0.4-0.7,0.5
			c-1.1,1.1-2.4,2.5-4.2,4.4l0,0c-0.4,0.4-0.9,0.9-1.3,1.5c-1.5,1.5-2.9,3.3-4.5,5.1c-0.2,0.2-0.4,0.4-0.5,0.5
			c-0.9,1.1-1.8,2.2-2.9,3.3l0,0c-1.1,1.3-2.4,2.7-3.4,4.2l0,0c-0.4,0.4-0.5,0.5-0.7,0.9c-1.5,1.6-2.7,3.3-3.8,4.7l0,0
			c-3.4,4.2-6,7.4-7.6,9.8l0,0c-0.4,0.5-0.7,0.9-0.9,1.5c-0.5,0.9-1.1,1.6-1.3,2.2c-0.7,1.3-0.9,2.2-0.9,2.9c0,0.4,0.2,0.5,0.4,0.9
			c0.9,1.1,1.6,1.8,3.4,1.5c0.5-0.2,1.5-0.4,2.4-0.7s2-0.7,3.4-1.5c2.7-1.3,6.5-2.9,11.6-5.4c2.5-1.3,5.4-2.7,8.7-4.4
			c4.2-2,8-4,11.1-5.8c5.3-2.9,8.7-5.3,8.7-5.8c0-1.6-6.7-11.1-11.4-16.7c-0.9-1.1-1.6-2-2.4-2.7s-1.3-1.3-1.6-1.5
			C479.2,25.9,479,25.9,478.8,25.9L478.8,25.9z M610.9,73.5c-0.4,0-0.5,0-0.9,0c-0.4,0-0.9,0-1.3,0c-0.4,0-0.5,0-0.9,0
			c-0.4,0-0.7,0-1.3,0c-0.4,0-0.5,0-0.9,0s-0.7,0-1.1,0c-0.4,0-0.5,0-0.7,0c-0.4,0-0.5,0-0.9,0.2c-0.2,0-0.4,0-0.5,0.2
			c-0.4,0-0.5,0.2-0.7,0.2c-0.2,0-0.4,0-0.5,0.2h-0.2h-0.2c0,0-0.2,0-0.2,0.2h-0.2c0,0-0.2,0-0.2,0.2l0,0l-0.2,0.2l0,0
			c0,0.2-0.2,0.4-0.2,0.7c-0.7,2.7-2.5,12.2-4.4,22.7c-0.5,3.6-1.1,6.5-1.6,9.3c-0.2,0.5-0.2,1.3-0.4,1.8l0,0c0,0.2,0,0.4-0.2,0.7
			c-0.9,5.3-1.6,8.9-2.4,10.9c-0.4,0.9-0.5,1.5-0.9,1.8l0,0l-0.2,0.2l0,0l0,0c-0.2,0-0.2,0-0.4-0.2c-0.4-0.4-0.7-1.1-1.3-2.7l0,0
			c-0.2-0.7-0.5-1.6-0.7-2.7c-0.7-3.3-1.6-8-2.7-14.2l0,0c-0.7-4.2-1.6-8.9-2.5-14.3l-1.3-6.5h-18.3c-6.9,0-11.4,0-14.2,0.4
			c-0.5,0-0.9,0.2-1.3,0.2c-0.5,0.2-1.1,0.2-1.6,0.4c-0.2,0-0.4,0.2-0.5,0.2c-0.7,0.4-1.1,0.9-1.5,1.5l0,0c0,0.2-0.2,0.4-0.2,0.5
			c-0.2,0.7-1.1,4.7-2,10.3c-0.2,0.5-0.2,0.9-0.2,1.5l0,0c0,0.5-0.2,1.1-0.4,1.6c-1.1,6.4-2.5,14.2-3.8,22.5l-5.4,33l5.4,4.9
			l5.4,4.9l0,0l-7.6,8.2c-3.4,3.8-5.4,6.2-6.9,9.1l0,0c-0.5,1.1-0.9,2.4-1.3,3.8l0,0c-0.7,2.4-1.3,5.4-1.8,9.4
			c-0.4,2-0.5,3.8-0.9,5.6l0,0c0,0.2,0,0.2,0,0.4c-0.2,1.6-0.4,3.1-0.5,4.5c0,0.7-0.2,1.3-0.2,1.8c-0.2,1.6,0,2.7,0.2,2.9
			c0,0,0.2,0,0.2,0.2l0,0c0,0,0.2,0.2,0.4,0.2l0,0h0.2c0.5,0.2,1.1,0.4,1.8,0.5c0.2,0,0.2,0,0.4,0l0,0c0.5,0.2,1.1,0.4,1.8,0.5
			c1.3,0.4,2.9,0.7,4.5,1.1c1.6,0.4,3.4,0.7,5.3,1.1c1.8,0.4,3.6,0.7,5.4,0.9c2.7,0.5,5.3,0.9,7.4,1.1l0,0c1.5,0.2,2.7,0.4,3.6,0.4
			l0,0c0.5,0,0.9,0,1.3,0c0.7,0,1.1,0,1.6-0.2c0.4-0.2,0.5-0.2,0.9-0.5l0.2-0.2c0.2-0.2,0.4-0.4,0.4-0.5l0,0c0,0,0-0.2,0.2-0.2
			c0.4-0.5,0.5-1.3,0.9-2.2c0-0.2,0-0.2,0-0.2l0,0c0.5-2,1.1-5.1,1.8-9.6l0,0c0-0.4,0.2-0.7,0.2-0.9c0.2-1.6,0.5-3.3,0.7-5.3
			c0.5-3.8,1.1-7.1,1.5-10.2c0-0.5,0.2-1.3,0.2-1.8l0,0c0.7-5.1,1.3-8.9,1.8-11.6l0,0c0.5-2.7,1.1-4.2,1.8-4.5l0,0h0.2
			c0.2,0,0.2,0,0.4,0c1.8,0.4,4.5,7.1,10.2,18.9l10.9,22.9l6.9-17.6l6.9-17.6l2.2,13.2c0.5,3.6,1.5,9.1,2.5,15.1l0,0
			c0.9,6,2,12.2,2.9,17.6l0,0l3.1,19.4l16.7,2.9c2.2,0.4,4.2,0.7,6,1.1c3.6,0.5,6.5,0.9,8.7,1.3c2.2,0.4,3.8,0.4,5.1,0.2
			c0.4,0,0.5,0,0.7,0c0.5-0.2,0.9-0.2,1.1-0.5c0.2-0.2,0.2-0.5,0.2-0.9c-0.2-0.4-0.2-1.1-0.4-1.8l0,0c0-0.7-0.2-1.6-0.2-2.5
			c0-0.2,0-0.2,0-0.4l0,0c0-0.4-0.4-0.7-0.5-1.3c-0.2-0.4-0.4-0.5-0.7-0.9c-0.4-0.4-0.5-0.7-0.9-1.1c-0.7-0.7-1.6-1.5-2.5-2.2
			c-0.9-0.7-2-1.5-3.1-2.2c-1.6-0.9-3.1-2-4.7-3.3c-0.7-0.5-1.5-1.3-2.2-1.8c-0.7-0.5-1.3-1.3-2-2c-0.4-0.4-0.7-0.7-0.9-1.1l0,0
			c-0.5-0.7-1.3-1.5-1.8-2l0,0c-0.4-0.4-0.5-0.7-0.9-1.1l0,0c-0.4-0.4-0.5-0.7-0.9-1.1l0,0c-0.7-1.1-1.6-2.4-2.4-3.4l0,0
			c-1.5-2.4-2.7-4.9-3.6-7.4c-1.8-4.4-2.9-8.9-3.4-13.6c-0.2-1.8-0.4-3.8-0.5-5.8c0-2,0-3.8,0-5.8c0.4-5.8,1.6-11.8,3.6-17.4l0,0
			c0.4-0.9,0.7-1.8,1.1-2.9c0.7-1.8,1.6-3.6,2.7-5.4l0,0c0.5-0.9,1.1-1.8,1.6-2.7c0.7-1.3,1.6-2.5,2.5-4c0.4-0.4,0.5-0.9,0.9-1.3
			l4.2-5.4l-5.3-33.4c-0.7-4.5-1.5-9.1-2-13.1l0,0c-1.6-10.2-3.1-18.3-3.6-21.2c-0.2-0.5-0.2-0.9-0.4-1.1l-0.2-0.2c0,0,0,0-0.2,0
			l-0.2-0.2h-0.2c0,0-0.2-0.2-0.4-0.2h-0.2c0,0-0.2,0-0.4-0.2c-0.4-0.2-0.7-0.2-1.1-0.4h-0.2c-0.4,0-0.5-0.2-0.9-0.2
			c-0.4,0-0.7-0.2-1.1-0.2c-0.2,0-0.5,0-0.7-0.2c-0.4,0-0.9-0.2-1.5-0.2c-0.4,0-0.5,0-0.9,0c-0.5,0-1.1,0-1.6-0.2
			c-0.2,0-0.5,0-0.7,0c-0.5,0-1.1,0-1.8,0c-0.2,0-0.5,0-0.7,0C612.7,73.5,611.8,73.5,610.9,73.5L610.9,73.5z M365.7,74.8l-8.3,11.6
			c-4.5,6.4-12.3,17.1-17.1,23.6l-8.9,12.2l0,0L330,99.3c-0.2-2.9-0.4-5.8-0.5-8.3c0-0.2,0-0.4,0-0.5c0-0.2,0-0.4,0-0.5
			c-0.5-6.5-0.9-11.8-1.1-13.2c0-0.4,0-0.5-0.2-0.5c0,0-0.7,0-2,0.4c-2.4,0.5-6.9,1.8-12.3,3.3c-2.7,0.7-5.8,1.6-8.9,2.5l-5.3,1.5
			l-17.6,5.3l-0.5,6.7l0,0v0.5l-0.5,6.2l1.1-0.2l5.8-0.9l6.9-1.1l0,0l1.8,23.4c0.7,10,1.3,15.6,2,19.8c0.2,1.1,0.5,2.2,0.7,3.1
			c0.2,0.5,0.4,0.9,0.5,1.5c0.7,1.8,1.6,3.4,2.7,5.3c0.5,0.9,1.3,1.8,2,3.1c1.5,2,2.7,4.2,3.8,6.4c0.5,1.1,1.1,2.2,1.6,3.4
			c0.7,1.6,1.3,3.4,2,5.3c0.7,2.4,1.3,4.7,1.8,7.3c0.2,1.3,0.4,2.5,0.5,3.6c0.2,1.8,0.4,3.8,0.4,5.6l0,0c0,2.5,0,5.1-0.4,7.6l0,0
			c-0.2,1.3-0.4,2.5-0.5,3.8l0,0c-0.4,2.5-1.1,5.1-1.8,7.4l0,0c-0.4,1.3-0.7,2.5-1.3,3.6l0,0c-0.2,0.5-0.5,1.3-0.7,1.8l0,0
			c-0.2,0.5-0.5,1.3-0.7,1.8l0,0c-1.3,2.7-2,4.9-2.5,7.3l0,0c-0.7,3.1-0.9,6.2-0.9,10.5c0,1.1,0,2.2,0.2,3.4l0.5,12.2l11.8-1.1
			c6.5-0.5,13.6-1.6,15.8-2.2c1.5-0.4,2.4-0.7,2.9-2.4l0,0c0.4-0.9,0.5-2.2,0.7-3.8c0.2-1.3,0.2-2.5,0.2-4.4c0-0.9,0-1.8,0-2.7l0,0
			c0-2,0-4.4,0-7.1l0,0c0-2.7,0-5.8,0-9.4l0,0v-29.6l54.6,27.4l0,0c7.4,3.8,14.7,7.4,21.4,10.7c6.7,3.3,12.7,6.2,17.8,8.7
			c7.6,3.6,13.2,6.4,16,7.4c0.4,0.2,0.7,0.4,1.1,0.4l0,0c0.2,0.2,0.4,0.2,0.5,0.2h0.2l0.2-0.2c0.7-1.1,1.1-5.1,1.1-11.6l0,0l0,0
			c0-1.1,0-2.2,0-3.4l-0.5-15.2l-10.7-2.9l0,0c-0.5-0.2-1.1-0.4-1.6-0.5l0,0c-0.5-0.2-1.1-0.4-1.6-0.5c-1.1-0.4-2.2-0.7-3.1-1.1
			c-1.1-0.4-2.2-0.7-3.1-1.3c-1.1-0.4-2-0.9-3.1-1.5c-1.1-0.5-2-0.9-3.1-1.5l0,0c-0.9-0.5-2-1.1-2.9-1.6l0,0
			c-0.9-0.5-1.8-1.1-2.9-1.8c-1.5-0.9-2.9-2-4.2-2.9c-0.4-0.4-0.7-0.5-1.1-0.9l0,0c-0.9-0.7-1.6-1.3-2.5-2l0,0
			c-0.4-0.4-0.7-0.7-1.1-0.9c-0.7-0.7-1.6-1.5-2.4-2.2c-0.4-0.4-0.7-0.7-1.1-1.1c-0.4-0.4-0.7-0.7-1.1-1.1c-0.7-0.7-1.3-1.5-2-2.2
			c-0.9-1.1-1.8-2.4-2.5-3.4c-0.5-0.7-1.1-1.6-1.5-2.4l-0.2-0.2c0,0,0,0-0.2-0.2l-0.2-0.2l-0.2-0.2l0,0c-0.2-0.2-0.4-0.2-0.5-0.4
			l-0.2-0.2c-0.2-0.2-0.5-0.4-0.9-0.5l0,0c-0.5-0.4-1.5-0.7-2.2-1.3c-2.5-1.3-6-2.9-9.8-4.5c-2.5-1.1-5.4-2.4-8.3-3.4l0,0
			c-2.9-1.1-5.6-2.2-8.2-3.3l0,0c-2.5-1.1-4.9-2-6.9-2.7c-2.9-1.3-5.1-2.2-6-2.5c-0.4-0.2-0.5-0.2-0.5-0.4l0,0c0,0,0,0,0-0.2
			c0.2-0.4,0.7-0.9,1.5-2c0.5-0.7,1.3-1.5,2-2.4l0,0c0.7-0.9,1.6-2,2.7-3.1c4-4.5,9.8-10.7,16.2-17.2c9.4-10,17.6-18.9,21.1-23
			c0.9-1.1,1.5-1.8,1.6-2.2c0-0.2,0.2-0.2,0.2-0.2s0-0.2-0.2-0.2c0-0.2-0.2-0.2-0.4-0.4c-0.2-0.4-0.5-0.7-1.1-1.1
			c-2.5-2.7-8.5-8.7-15.4-15.1l0,0L365.7,74.8z M137.1,81.1c-0.5,0-0.9,0-1.5,0c-1.3,0-2.5,0-3.8,0.2c-0.2,0-0.5,0-0.7,0
			c-1.3,0-2.5,0.2-3.8,0.2c-0.2,0-0.2,0-0.4,0c-1.3,0.2-2.5,0.2-3.8,0.4c-0.2,0-0.4,0-0.5,0c-1.3,0.2-2.5,0.4-4,0.5
			c-0.2,0-0.5,0-0.7,0.2c-1.3,0.2-2.7,0.4-4,0.7c-1.5,0.2-2.7,0.5-4.2,0.7c-0.2,0-0.4,0-0.5,0.2c-1.3,0.4-2.7,0.5-4,0.9
			c-0.2,0-0.5,0.2-0.7,0.2c-1.3,0.4-2.7,0.7-4,1.1h-0.2c-1.5,0.4-2.9,0.7-4.2,1.3c-0.2,0-0.5,0.2-0.7,0.2c-1.5,0.4-2.7,0.9-4.2,1.3
			c-0.2,0-0.5,0.2-0.7,0.2c-1.3,0.4-2.5,0.9-3.8,1.3c-0.2,0-0.4,0.2-0.5,0.2c-1.5,0.5-2.9,1.1-4.4,1.6c-0.4,0.2-0.5,0.2-0.9,0.4
			c-1.5,0.5-2.9,1.1-4.4,1.8c0,0-0.2,0-0.2,0.2c-1.5,0.5-2.9,1.3-4.2,1.8c-0.2,0.2-0.5,0.2-0.7,0.4c-1.5,0.7-2.9,1.3-4.4,2
			c-0.4,0.2-0.5,0.2-0.9,0.4c-1.5,0.7-3.1,1.5-4.5,2.2l0,0c-1.6,0.7-3.1,1.5-4.4,2.2c-1.8,0.9-3.3,1.6-4.5,2.4
			c-1.5,0.7-2.5,1.5-3.4,2.2c-0.2,0-0.4,0.2-0.4,0.2c-0.4,0.2-0.5,0.4-0.9,0.5c-0.5,0.4-0.9,0.7-1.3,1.1c-0.2,0.2-0.4,0.4-0.4,0.5
			c-0.5,0.7-0.5,1.3-0.4,1.8c0.2,0.5,0.5,1.6,1.3,3.1c0.7,1.5,1.5,3.1,2.5,4.9c2,3.6,4.7,8.2,7.3,12.5l0,0c1.3,2.2,2.5,4.4,3.8,6.4
			c1.3,2,2.4,3.8,3.4,5.3l0,0c1.1,1.6,2,2.9,2.7,3.6l0,0c0.5,0.7,0.9,1.1,1.3,1.3l0.2,0.2c0.2,0,0.2,0,0.4,0c0.2,0,0.4-0.2,0.7-0.2
			c1.5-0.5,4.2-1.5,6.7-2.7l0,0c0.2-0.2,0.5-0.2,0.7-0.4c0.4-0.2,0.7-0.4,0.9-0.4c0.7-0.4,1.5-0.5,2.2-0.7c1.3-0.4,2.4-0.4,3.1-0.2
			c0.2,0,0.2,0,0.4,0.2c0.2,0,0.4,0.2,0.4,0.4l0,0c0.2,0.2,0.5,0.7,0.9,1.6l0,0c0.9,1.6,2.2,4.4,3.6,7.4c0.7,1.6,1.5,3.3,2.2,4.9
			c14.2,32.1,44.8,100.2,53.4,118.7l0,0c1.3,2.5,2,4.2,2.2,4.5c0.2,0.2,0.2,0.4,0.4,0.5l0,0c0.2,0.2,0.4,0.4,0.4,0.5
			c0.5,0.5,0.9,0.9,1.5,1.1c0.5,0.2,1.1,0.4,1.5,0.2c1.1-0.4,7.6-2.5,14.3-4.7c1.6-0.5,3.3-1.1,4.9-1.6c1.5-0.5,2.9-1.1,4.2-1.5l0,0
			c0.4-0.2,0.7-0.2,1.1-0.4c0.7-0.4,1.5-0.5,2-0.7c0.4-0.2,0.7-0.4,0.9-0.4c0.2-0.2,0.4-0.2,0.5-0.4c0.2-0.2-0.2-2.7-0.9-6.7
			c-1.5-6.7-4.2-18-7.4-30.3c-1.3-4.9-2.5-9.6-3.6-14c-1.1-4.4-2.2-8.2-2.9-11.4l0,0c-1.6-6.5-2.5-10.7-2.5-10.7l0,0
			c0,0,0.4-0.2,0.7-0.5c0.2,0,0.2,0,0.4-0.2l0,0c0.5-0.4,1.3-0.9,2.4-1.6c2-1.5,4.5-3.4,7.3-5.4c2.4-1.8,4.9-3.8,7.1-6
			c1.1-1.1,2.2-2.2,3.3-3.3c0.5-0.5,1.1-1.1,1.6-1.6l0,0c1.1-1.1,2.2-2.4,3.1-3.4l0,0c0.5-0.5,1.1-1.1,1.5-1.8l0,0
			c0.4-0.5,0.7-0.9,1.1-1.5c0.2-0.2,0.2-0.2,0.4-0.4c0.9-1.3,1.8-2.4,2.7-3.6c0.7-0.9,1.5-2,2-3.1c0.2-0.2,0.4-0.5,0.5-0.7l0,0
			c0.4-0.5,0.9-1.3,1.3-1.8l0,0c0.7-1.3,1.6-2.5,2.4-3.8l0,0c0.7-1.3,1.5-2.5,2-3.8l0,0c0.7-1.3,1.3-2.5,1.8-4l0,0
			c0.4-0.7,0.5-1.3,0.9-2l0,0c0.2-0.7,0.5-1.3,0.7-2l0,0c0.5-1.3,0.9-2.5,1.3-3.8l0,0c0.2-0.7,0.4-1.3,0.5-2l0,0
			c0.2-0.7,0.4-1.3,0.5-2l0,0c0.2-0.7,0.4-1.3,0.4-1.8l0,0c0.2-0.5,0.2-1.3,0.4-1.8l0,0c0.2-1.3,0.4-2.5,0.5-3.6l0,0
			c0.2-1.6,0.2-3.4,0.2-5.1c0-1.6-0.2-3.3-0.4-4.9c-0.2-0.7-0.2-1.6-0.4-2.4l0,0c-0.2-0.7-0.4-1.6-0.5-2.4c-0.4-1.6-0.9-3.1-1.6-4.5
			l0,0c-1.6-3.8-3.8-7.4-6.7-11.1l0,0c-0.5-0.7-1.3-1.5-1.8-2.2c-0.5-0.7-1.3-1.5-2-2.2c-0.7-0.7-1.5-1.5-2.2-2l0,0
			c-1.5-1.3-2.7-2.5-4.2-3.6c-1.5-1.1-2.7-2.2-4.2-3.1c-1.5-0.9-2.9-1.8-4.4-2.7l0,0c-0.7-0.4-1.5-0.7-2.2-1.1
			c-0.7-0.4-1.5-0.7-2.4-1.1c-1.6-0.7-3.3-1.3-4.9-1.8c-3.4-1.1-7.1-2-11.4-2.7c-2.2-0.4-4.4-0.7-6.7-0.9c-0.9-0.2-1.8-0.2-2.9-0.4
			c-0.4,0-0.5,0-0.9,0c-0.7,0-1.3-0.2-2-0.2c-0.4,0-0.7,0-0.9,0c-0.7,0-1.5,0-2.2-0.2c-0.2,0-0.4,0-0.7,0c-1.1,0-2,0-3.1,0
			C137.6,81.1,137.5,81.1,137.1,81.1L137.1,81.1z M465.6,90c-1.3,0-2.5,0-3.8,0.2c-1.1,0-2.2,0.2-3.4,0.4h-0.2
			c-0.5,0-1.3,0.2-1.8,0.2c-1.1,0.2-2.2,0.4-3.3,0.5c-0.2,0-0.5,0.2-0.7,0.2c-0.5,0.2-0.9,0.2-1.5,0.4c-0.9,0.2-2,0.5-2.9,0.7
			c-0.7,0.2-1.5,0.4-2.2,0.7c-0.9,0.2-1.8,0.5-2.5,0.7c-0.5,0.2-1.3,0.4-1.8,0.5l0,0c-0.4,0.2-0.7,0.2-1.1,0.4
			c-0.4,0.2-0.9,0.4-1.3,0.5c-0.4,0.2-0.7,0.2-1.1,0.4l0,0c-0.5,0.2-1.1,0.5-1.6,0.7c-0.5,0.2-1.1,0.5-1.6,0.7
			c-0.5,0.2-1.1,0.5-1.6,0.7c-0.5,0.2-1.1,0.5-1.5,0.7c-0.5,0.2-0.9,0.5-1.5,0.7c-0.9,0.5-2,1.1-2.9,1.6s-1.8,1.3-2.7,1.8l0,0
			c-0.4,0.4-0.9,0.5-1.3,0.9c-1.6,1.3-3.3,2.7-4.7,4.2c-0.4,0.4-0.7,0.7-1.1,1.1c-0.7,0.7-1.5,1.5-2,2.4c-0.7,0.7-1.3,1.6-1.8,2.5
			l0,0c-0.2,0.2-0.2,0.4-0.4,0.5c-0.7,1.1-1.5,2.2-2.2,3.4c-0.5,0.9-1.1,1.8-1.6,2.7l0,0c-0.2,0.5-0.5,0.9-0.7,1.5
			c-0.4,0.7-0.7,1.5-1.1,2.4l0,0c-2,4.7-3.3,10-3.8,15.4l0,0v0.2c-0.2,1.8-0.2,3.4-0.2,5.3c0,0.9,0,1.8,0,2.7l0,0
			c0,0.9,0.2,1.8,0.2,2.7l0,0c0,0.9,0.2,1.8,0.4,2.7c0.2,1.8,0.5,3.4,1.1,5.1c0.2,0.9,0.4,1.6,0.7,2.5c0.2,0.7,0.5,1.6,0.9,2.4l0,0
			c0.2,0.7,0.5,1.3,0.9,2l0,0c0.9,2,2.2,4,3.4,6c0.2,0.4,0.4,0.5,0.5,0.9c0.7,1.1,1.6,2,2.4,3.1c1.1,1.3,2.2,2.5,3.4,3.6
			c1.3,1.3,2.5,2.4,3.8,3.4c0.7,0.5,1.3,1.1,2,1.6c1.3,1.1,2.7,2,4.2,2.7c1.5,0.9,2.7,1.6,4.2,2.2c0.7,0.4,1.5,0.5,2,0.9l0,0
			c0.4,0.2,0.7,0.2,1.1,0.4l0,0c1.1,0.4,2.4,0.7,3.6,1.1c3.4,0.9,7.3,1.5,11.4,1.8c2,0.2,4.2,0.2,6.4,0.4c2.2,0,4.4,0,6.5-0.2
			c3.3-0.2,6.4-0.4,9.4-0.9c3.1-0.4,5.8-1.1,8.3-1.8c2.7-0.7,5.8-1.8,8.9-3.1c1.5-0.5,2.9-1.1,4.4-1.8c1.3-0.5,2.5-1.1,3.4-1.6
			c0.5-0.4,1.3-0.7,1.8-1.1c1.3-0.7,2.7-1.5,4-2.4c2-1.3,4-2.5,6-4c1.3-0.9,2.5-1.8,3.8-2.7c0.5-0.5,1.1-0.9,1.6-1.3
			c1.6-1.3,3.1-2.5,4-3.6c0.4-0.4,0.7-0.7,0.9-1.1c0.2-0.4,0.5-0.5,0.7-0.9c0-0.2,0.2-0.2,0.2-0.4c0-0.2,0.2-0.2,0.2-0.4
			c0-0.2,0.2-0.4,0-0.5c0-0.2-0.4-0.7-1.1-1.5c-0.4-0.4-0.7-0.7-1.1-1.3c-1.3-1.5-3.1-3.1-5.1-5.1c-1.3-1.3-2.7-2.7-4.4-4
			l-11.1-10.2l-8,6.2l0,0c-0.5,0.4-0.9,0.7-1.5,1.1l0,0c-1.1,0.7-2.2,1.5-3.3,2.2l0,0c-0.9,0.5-2,1.1-2.9,1.6
			c-0.5,0.2-0.9,0.5-1.5,0.7c-0.4,0.2-0.5,0.4-0.9,0.4l0,0c-0.4,0.2-0.7,0.4-0.9,0.4c-0.9,0.4-1.6,0.7-2.5,1.1
			c-1.6,0.7-3.4,1.1-4.9,1.5c-0.9,0.2-1.8,0.4-2.5,0.5c-0.5,0-0.9,0.2-1.5,0.2c-0.5,0-1.1,0-1.5-0.2c-0.2,0-0.4,0-0.4-0.2l0,0
			c0,0-0.2,0-0.2-0.2c0-0.2,0-0.4,0.2-0.7c0.5-1.3,2.5-3.8,5.3-6.9c0.4-0.4,0.7-0.9,1.1-1.3c0.9-1.1,1.8-2,2.9-3.3
			c0.4-0.5,0.9-0.9,1.3-1.5l0,0c1.1-1.1,2-2.2,3.1-3.3c8.7-9.1,19.1-20,22.9-24.1l0,0l7.1-7.4l-5.8-6c-0.5-0.5-1.1-1.1-1.6-1.5
			c-0.2-0.2-0.2-0.2-0.4-0.4c-0.5-0.5-1.1-0.9-1.6-1.5c-0.5-0.5-1.1-0.9-1.8-1.3c-0.2-0.2-0.4-0.2-0.5-0.4c-0.5-0.4-1.3-0.9-1.8-1.3
			l0,0c-0.5-0.4-1.3-0.7-2-1.1c-0.2-0.2-0.4-0.2-0.5-0.4c-0.7-0.4-1.3-0.7-2-1.1c-0.7-0.4-1.5-0.7-2-0.9c-0.2,0-0.4-0.2-0.5-0.2
			c-0.7-0.4-1.5-0.5-2.2-0.9c-0.7-0.4-1.5-0.5-2.2-0.7c-0.2,0-0.4-0.2-0.5-0.2c-0.7-0.2-1.5-0.5-2.2-0.7l0,0
			c-0.7-0.2-1.6-0.4-2.4-0.5c-0.2,0-0.4,0-0.5-0.2c-0.7-0.2-1.6-0.4-2.4-0.5c-0.7-0.2-1.6-0.2-2.4-0.4c-0.2,0-0.4,0-0.5,0
			c-0.7-0.2-1.6-0.2-2.4-0.2l0,0c-0.7,0-1.6-0.2-2.4-0.2c-0.2,0-0.4,0-0.5,0C467.2,90,466.5,90,465.6,90L465.6,90L465.6,90z
			 M718.9,93.6c-0.2,0-0.4,0-0.5,0c-0.2,0-0.2,0-0.4,0s-0.2,0-0.4,0.2c-0.2,0.2-0.4,0.2-0.5,0.4l-0.2,0.2l0,0
			c-0.4,0.4-0.5,0.9-0.9,1.5l0,0c-0.5,1.1-0.7,2.5-0.7,4.2c0,2.5,0.4,4,1.5,5.1c0.2,0.2,0.2,0.2,0.4,0.4c0.2,0.2,0.4,0.2,0.4,0.4
			c0.4,0.2,0.7,0.4,1.1,0.5c0.5,0.4,1.3,0.5,2.2,0.9l5.4,2l0,0l-1.1,12.2c-0.4,4.4-0.7,7.3-0.5,9.4c0,0.4,0,0.7,0.2,1.1v0.2
			c0.2,0.5,0.2,1.1,0.4,1.6v0.2c0,0.2,0.2,0.2,0.2,0.4c0,0.2,0.2,0.4,0.2,0.5l0,0c0.4,0.9,0.9,2,1.6,3.1l0,0c0.7,1.1,1.6,2.4,2.7,4
			c0.5,0.7,1.1,1.5,1.5,2.2l0,0c1.8,2.9,3.4,5.4,4.5,8.2c0.9,2,1.6,4,2.2,6c0.7,2.7,1.1,5.6,1.5,8.7c0.2,2.4,0.2,4.9,0,7.6l0,0v0.2
			c0,0.9,0,1.8-0.2,2.7c0,0.9-0.2,2-0.2,2.9c-0.2,0.9-0.2,1.8-0.4,2.9l0,0c0,0.2,0,0.4,0,0.5c-0.2,1.6-0.5,3.4-1.1,5.1
			c-0.7,2.7-1.5,5.4-2.5,8.2c-0.4,0.9-0.7,1.8-1.1,2.7l0,0c-0.4,0.9-0.7,1.8-1.3,2.5l0,0c-0.2,0.4-0.4,0.5-0.4,0.9
			c-0.7,1.5-1.5,2.7-2.4,4.2c-0.5,0.9-0.9,1.6-1.5,2.4l0,0c-1.1,1.6-2.2,3.3-3.4,4.7l0,0c-1.3,1.5-2.5,3.1-3.8,4.5l0,0
			c-1.5,1.5-2.4,2.7-3.3,3.8l0,0c-0.9,1.1-1.5,2.4-2,3.4c-0.2,0.4-0.2,0.5-0.4,0.9l0,0c-0.2,0.7-0.4,1.3-0.5,2
			c-0.4,1.8-0.5,4.2-0.7,7.1l-0.5,10.9l7.1,1.1c3.8,0.7,10.3,1.6,14.5,2.4l7.4,1.1l1.8-9.3c0.5-2.5,1.5-7.4,2.5-13.2
			c1.1-5.8,2.4-12.7,3.4-18.9l0,0l4-22.9l1.1,12.3l0,0c0.2,1.6,0.4,4.2,0.4,6.9l0,0c0,1.5,0.2,2.9,0.2,4.5l0,0
			c0.2,4.9,0.4,10.7,0.5,16.5c0,3.8,0.2,7.8,0.2,11.6c0,7.4,0.2,14.9,0.5,20.5l0,0c0.2,2.9,0.2,5.3,0.4,7.1l0,0
			c0,0.9,0.2,1.6,0.2,2.4l0,0c0,0.4,0,0.5,0.2,0.7l0,0c0,0.2,0,0.4,0.2,0.5l0,0c0.2,0.4,0.2,0.7,0.4,1.1l0,0
			c0.2,0.4,0.4,0.7,0.7,0.9l0,0c1.3,1.6,3.8,2.9,8,4.4l0,0c0.9,0.4,1.8,0.5,2.7,0.9c1.5,0.5,2.9,0.9,4.4,1.3c1.5,0.4,2.7,0.7,4,1.1
			l0,0c0.5,0.2,1.3,0.4,1.6,0.4l0,0c0.5,0.2,1.1,0.2,1.5,0.2l0,0c0.9,0.2,1.5,0.2,1.8,0.2l0,0h0.2c0.2-0.2,0.5-0.5,0.9-1.1
			c1.3-2.4,3.6-8.2,7.3-18l0,0c2.4-6.5,5.3-14.5,8.5-24.5c3.4-10,7.3-21.6,11.8-35.2c3.6-10.7,6.9-21.2,10.2-30.7
			c3.1-9.6,6-18.1,8.3-25.6s4.4-13.4,5.6-17.8c1.3-4.4,2-6.9,2.2-7.3c0-0.5-0.2-1.1-0.9-1.5c-0.4-0.2-0.7-0.5-1.3-0.7
			c-0.5-0.2-1.1-0.5-1.8-0.7c-0.4-0.2-0.7-0.2-1.1-0.4c-0.4-0.2-0.9-0.4-1.3-0.4c-0.9-0.4-2-0.5-3.3-0.9c-1.3-0.4-2.5-0.5-4-0.9
			c-1.5-0.4-3.1-0.7-4.9-1.1l0,0c-2.5-0.5-5.1-1.1-7.3-1.5c-2.2-0.4-4.4-0.9-6-1.1c-0.9-0.2-1.6-0.4-2.4-0.4
			c-2.2-0.4-3.4-0.5-3.4-0.4c0,0-0.2,0.4-0.2,0.7l0,0c-0.4,1.5-1.3,4.7-2.4,9.1c-1.5,6-3.4,14.2-5.4,22.9c-0.5,2.2-1.1,4.4-1.6,6.5
			c-2.5,10.5-4.9,19.1-6.2,23.2c-0.2,0.5-0.4,0.9-0.4,1.3c0,0.2-0.2,0.5-0.2,0.7l0,0c0,0.2-0.2,0.4-0.2,0.5l0,0
			c0,0.2-0.2,0.2-0.2,0.2l0,0c0,0,0,0-0.2-0.2l0,0c0-0.2-0.2-0.4-0.2-0.5l0,0c-0.2-0.5-0.4-1.3-0.7-2.2l0,0c-0.5-1.8-1.3-4.5-2-7.8
			l0,0c-0.4-1.6-0.9-3.4-1.3-5.4l0,0c-0.4-2-0.9-4-1.5-6.2c-0.9-4.4-2-9.3-3.1-14.2c-1.1-5.1-2-9.8-3.1-14.3
			c-0.9-4.4-1.8-8.3-2.5-11.8c-1.5-6.7-2.4-10.9-2.5-11.1l0,0c0,0,0,0-0.2,0h-0.2c0,0-0.2,0-0.2-0.2c-0.2,0-0.4-0.2-0.7-0.2
			s-0.5-0.2-0.9-0.2c-0.4,0-0.7-0.2-1.1-0.4c-0.4,0-0.7-0.2-1.1-0.2c-0.5-0.2-1.1-0.2-1.6-0.4c-0.4,0-0.7-0.2-1.1-0.2
			c-1.1-0.2-2.4-0.5-3.6-0.7c-1.3-0.2-2.5-0.5-3.8-0.7c-1.3-0.2-2.5-0.4-3.6-0.7c-1.6-0.4-3.1-0.5-4.7-0.9c-1.1-0.2-2.4-0.4-3.4-0.5
			c-1.6-0.4-3.4-0.5-5.1-0.9c-1.3-0.2-2.4-0.4-3.4-0.5c-1.8-0.4-3.8-0.5-5.4-0.7c-0.2,0-0.4,0-0.5,0c-0.7-0.2-1.5-0.2-2.2-0.4
			c-0.4,0-0.7,0-0.9-0.2c-0.5,0-1.1-0.2-1.6-0.2c-0.4,0-0.7,0-0.9-0.2C720,93.6,719.4,93.6,718.9,93.6L718.9,93.6L718.9,93.6z
			 M457.8,112.5c5.6,0.2,11.6,1.8,15.4,4.7l4,3.1l-16.9,19.4c-19.8,22.7-17.1,20-19.8,19.1c-3.4-1.3-9.3-13.8-9.3-20
			c0-12,9.3-23.4,21.1-25.8C453.9,112.7,455.8,112.5,457.8,112.5z M154.5,126.5c8.7,0,10.9,0.5,16.3,5.4c6.9,6,9.3,13.6,7.3,24.1
			c-0.9,4.9-4,9.3-11.6,16.7c-5.6,5.6-11.1,10.2-12,10.2s-5.1-11.8-9.4-26c-8-26-8-26-4.2-28.1C142.7,127.6,148.9,126.7,154.5,126.5
			z M688,133.9c-0.7,0-1.5,0-2.4,0c-0.2,0-0.2,0-0.4,0c-0.7,0-1.5,0.2-2.2,0.2c-0.2,0-0.4,0-0.4,0c-0.7,0-1.5,0.2-2.2,0.4
			c-0.2,0-0.2,0-0.4,0c-0.7,0.2-1.6,0.4-2.4,0.4c-0.7,0.2-1.6,0.4-2.4,0.5h-0.2c-0.7,0.2-1.5,0.4-2.4,0.7c-0.2,0-0.2,0-0.4,0.2
			c-0.7,0.2-1.5,0.5-2.2,0.7c-0.2,0-0.2,0.2-0.4,0.2c-1.6,0.5-3.1,1.3-4.5,2c-0.2,0-0.2,0.2-0.4,0.2c-0.7,0.4-1.5,0.7-2.2,1.1
			c-0.2,0-0.2,0.2-0.4,0.2c-0.7,0.4-1.5,0.9-2.2,1.3c-0.2,0-0.2,0.2-0.4,0.2c-0.7,0.5-1.5,0.9-2.2,1.5c-0.7,0.5-1.5,1.1-2.2,1.6
			c-0.2,0-0.2,0.2-0.4,0.2c-0.7,0.5-1.3,1.1-2,1.6c-0.2,0-0.2,0.2-0.4,0.2c-0.7,0.5-1.3,1.1-2,1.8l-0.2,0.2c-0.7,0.7-1.5,1.3-2,2
			c-2,2-3.8,4.2-5.4,6.4l0,0c-0.5,0.7-1.1,1.5-1.6,2.2l0,0c-1.1,1.5-2,2.9-2.7,4.5l0,0c-0.4,0.7-0.9,1.5-1.3,2.4l0,0
			c-0.4,0.7-0.7,1.5-1.1,2.4l0,0c-0.4,0.7-0.7,1.5-0.9,2.4l0,0c-0.4,0.7-0.5,1.6-0.9,2.4l0,0c-0.2,0.7-0.5,1.6-0.7,2.4l0,0
			c-0.2,0.7-0.4,1.6-0.5,2.4l0,0c0,0.2,0,0.2,0,0.4c-0.4,1.5-0.5,2.9-0.7,4.4c-0.2,1.6-0.4,3.1-0.4,4.7c0,1.5,0,3.1,0.2,4.5l0,0
			c0.4,3.1,0.9,6,1.8,8.9c0.5,1.5,1.1,2.9,1.6,4.4c0.4,0.7,0.7,1.5,1.1,2c1.1,2,2.4,4,3.8,6c0.5,0.5,0.9,1.3,1.5,1.8
			c0.5,0.5,1.1,1.3,1.6,1.8c0.5,0.5,1.1,1.3,1.8,1.8c0.5,0.5,1.3,1.1,1.8,1.6l0,0c0.4,0.4,0.7,0.5,0.9,0.7l0,0
			c0.4,0.2,0.7,0.5,1.1,0.7l0,0c0.4,0.2,0.7,0.5,1.1,0.7l0,0c0.4,0.2,0.7,0.5,1.1,0.7c0.4,0.2,0.7,0.4,1.3,0.5
			c0.4,0.2,0.9,0.4,1.3,0.5l0,0c0.4,0.2,0.9,0.4,1.3,0.5l0,0c0.4,0.2,0.9,0.4,1.3,0.5c0.5,0.2,0.9,0.4,1.5,0.4
			c0.5,0.2,0.9,0.4,1.5,0.4l0,0c0.5,0.2,0.9,0.2,1.5,0.4l0,0c0.5,0.2,0.9,0.2,1.5,0.4c0.5,0.2,1.1,0.2,1.5,0.4
			c1.1,0.2,2,0.4,3.1,0.4c2.5,0.2,5.3,0.4,8,0.2c0.5,0,1.1,0,1.6-0.2c1.1,0,2.2-0.2,3.3-0.4c1.1-0.2,2.2-0.4,3.3-0.5
			c1.1-0.2,2.2-0.4,3.3-0.7c1.1-0.2,2.2-0.5,3.1-0.9c1.1-0.4,2-0.7,3.1-1.1c0.5-0.2,0.9-0.4,1.5-0.5c1.1-0.5,2-0.9,3.1-1.5
			c1.3-0.7,2.5-1.3,3.6-2c1.1-0.7,2.2-1.5,3.3-2.2c2.4-1.6,4.5-3.6,6.5-5.6c0.5-0.5,1.3-1.3,1.8-1.8c1.1-1.3,2.2-2.5,3.3-3.8
			c0.5-0.7,1.1-1.3,1.5-2c3.4-4.7,6.2-9.8,8-15.1l0,0c1.3-3.8,2.4-7.6,2.7-11.4l0,0c0-0.7,0.2-1.5,0.2-2.4l0,0
			c0.2-2.4,0.2-4.5,0-6.9l0,0c-0.2-2.4-0.5-4.5-1.1-6.7l0,0c-0.2-0.7-0.4-1.5-0.7-2.2c-0.2-0.5-0.4-1.1-0.5-1.6c0-0.2,0-0.2-0.2-0.4
			c-0.2-0.4-0.4-0.7-0.5-1.1c0-0.2-0.2-0.4-0.2-0.5c-0.2-0.4-0.4-0.5-0.4-0.9c-0.2-0.2-0.2-0.4-0.4-0.5c-0.2-0.4-0.4-0.5-0.4-0.9
			c0-0.2-0.2-0.4-0.2-0.5c-0.2-0.4-0.4-0.5-0.5-0.9c0-0.2-0.2-0.4-0.2-0.4c-0.2-0.4-0.4-0.5-0.5-0.9c0-0.2-0.2-0.4-0.2-0.4
			c-0.2-0.4-0.4-0.7-0.7-0.9c0-0.2-0.2-0.2-0.2-0.4c-0.5-0.9-1.3-1.6-1.8-2.4l-0.2-0.2c-0.2-0.4-0.5-0.5-0.7-0.9
			c-0.2-0.2-0.2-0.2-0.4-0.4c-0.2-0.2-0.4-0.5-0.7-0.7c-0.2-0.2-0.2-0.2-0.4-0.4c-0.2-0.2-0.4-0.4-0.7-0.5c-0.2-0.2-0.4-0.2-0.4-0.4
			c-0.2-0.2-0.5-0.4-0.7-0.5c-0.2-0.2-0.2-0.2-0.4-0.4c-0.2-0.2-0.5-0.4-0.9-0.7c-0.2,0-0.2-0.2-0.4-0.2c-0.4-0.2-0.7-0.5-1.1-0.7
			c0,0-0.2,0-0.2-0.2c-0.4-0.4-0.7-0.5-1.3-0.9c-0.4-0.2-0.9-0.5-1.3-0.7l-0.2-0.2c-0.4-0.2-0.7-0.4-0.9-0.5c-0.2,0-0.4-0.2-0.4-0.2
			c-0.4-0.2-0.5-0.4-0.9-0.5c-0.2,0-0.2-0.2-0.4-0.2c-0.4-0.2-0.5-0.4-0.9-0.4c-0.2,0-0.4-0.2-0.5-0.2c-0.4-0.2-0.5-0.2-0.9-0.4
			c-0.2,0-0.4-0.2-0.5-0.2c-0.4-0.2-0.5-0.2-0.9-0.4c-0.2,0-0.2-0.2-0.4-0.2c-0.4-0.2-0.9-0.4-1.3-0.4c0,0,0,0-0.2,0l0,0
			c-0.5-0.2-0.9-0.4-1.5-0.4l0,0c-0.5-0.2-0.9-0.2-1.5-0.4h-0.2c-0.4-0.2-0.9-0.2-1.3-0.4c-0.2,0-0.2,0-0.4,0
			c-0.4,0-0.7-0.2-1.1-0.2c-0.2,0-0.4,0-0.5-0.2c-0.4,0-0.5,0-0.9-0.2c-0.2,0-0.4,0-0.5,0c-0.4,0-0.7,0-0.9-0.2c-0.2,0-0.4,0-0.5,0
			c-0.4,0-0.7,0-1.1,0c-0.2,0-0.4,0-0.4,0c-0.4,0-0.7,0-1.1,0c-0.2,0-0.2,0-0.4,0C689.1,133.9,688.6,133.9,688,133.9L688,133.9z
			 M680.4,144.1c2,0,1.6,1.5-1.3,4.4c-12.3,12.3,4.9,29.9,20,20.5c3.1-2,5.8-4.9,5.8-6.4c0-1.5,0.7-2.4,1.8-1.6
			c2.9,1.8,2,10.2-1.6,16.2c-6.9,11.4-20.7,15.6-31.8,10c-7.6-4-14.2-13.4-14.2-20.7c0-7.6,5.4-15.8,12.9-19.2
			C675.9,145.2,678.8,144.1,680.4,144.1L680.4,144.1z M260.1,145c-0.9,0-2,0-2.9,0H257c-1.8,0-3.6,0.2-5.3,0.4
			c-1.1,0.2-2.2,0.4-3.1,0.5c-0.9,0.2-1.8,0.4-2.7,0.5c-0.4,0.2-0.9,0.2-1.3,0.4c-0.4,0.2-0.9,0.2-1.3,0.4s-0.9,0.2-1.3,0.4
			c-0.4,0.2-0.7,0.4-1.3,0.4c-0.7,0.4-1.6,0.5-2.4,0.9c-1.8,0.7-3.4,1.8-5.3,2.9c-0.9,0.5-1.8,1.1-2.7,1.8c-0.4,0.2-0.5,0.4-0.9,0.7
			c-9.1,6.5-17.6,16.2-22,25c-0.4,0.9-0.7,1.6-1.1,2.5c-0.2,0.4-0.4,0.9-0.5,1.3c-1.8,4.9-2.9,10.3-3.3,15.8l0,0c-0.2,2-0.2,4-0.2,6
			l0,0c0,2,0.2,3.8,0.5,5.8c0.2,0.9,0.4,1.8,0.4,2.7c0,0.4,0.2,0.9,0.4,1.3c0.2,0.9,0.4,1.8,0.7,2.5c0.2,0.4,0.2,0.9,0.4,1.3l0,0
			c0.4,1.3,0.9,2.4,1.5,3.4l0,0c0.2,0.4,0.4,0.7,0.5,1.1l0,0c0.7,1.5,1.6,2.9,2.7,4.4l0,0c0.7,0.9,1.5,2,2.2,2.9
			c0.4,0.5,0.7,0.9,1.3,1.5l0,0c0.9,0.9,1.6,1.8,2.5,2.7s1.8,1.6,2.7,2.4c1.5,1.1,2.9,2.2,4.5,3.3c1.1,0.7,2,1.3,3.1,1.8
			c0.5,0.2,1.1,0.5,1.6,0.7c0.2,0.2,0.5,0.2,0.9,0.4c0.5,0.2,1.3,0.4,1.8,0.5c9.6,2.5,28.3,0.9,37.9-3.8c1.8-0.9,3.6-1.8,5.3-2.9
			c1.1-0.7,2.2-1.5,3.3-2.2c1.6-1.1,3.1-2.4,4.5-3.6c2.9-2.5,5.6-5.3,7.8-8.2c0.7-0.9,1.5-2,2.2-2.9c0.4-0.5,0.7-1.1,1.1-1.5
			c0.5-0.9,1.1-1.6,1.6-2.5c0.2-0.2,0.2-0.4,0.4-0.5l0,0c1.3-2,2.4-4.2,3.3-6.4l0,0c0.2-0.5,0.5-1.1,0.7-1.6l0,0
			c0.4-1.1,0.9-2.2,1.3-3.3l0,0c0.7-2.2,1.3-4.5,1.8-6.7c0.5-2.7,0.9-5.6,1.1-8.3c0.2-2.2,0-4.5-0.2-6.7c-0.2-1.1-0.2-2.2-0.4-3.3
			c0-0.5-0.2-1.1-0.4-1.6c-0.4-1.6-0.7-3.1-1.3-4.7c-0.4-1.1-0.7-2-1.1-3.1l0,0c-0.4-0.9-0.9-2-1.3-2.9c-0.5-0.9-0.9-1.8-1.5-2.9
			c-0.5-0.9-1.1-1.8-1.8-2.7c-0.5-0.9-1.3-1.8-2-2.5c-0.7-0.9-1.5-1.6-2.2-2.4c-0.7-0.7-1.6-1.5-2.5-2.2c-0.4-0.4-0.9-0.7-1.3-1.1
			c-0.4-0.4-0.9-0.7-1.5-1.1c-0.5-0.4-0.9-0.7-1.5-0.9c-0.5-0.4-0.9-0.5-1.5-0.9c-0.5-0.4-1.1-0.5-1.6-0.9l0,0
			c-0.4-0.2-0.7-0.4-0.9-0.5l0,0c-0.4-0.2-0.7-0.4-1.1-0.5l0,0c-0.4-0.2-0.7-0.4-1.1-0.4l0,0c-0.4-0.2-0.7-0.2-1.1-0.4l0,0
			c-0.4-0.2-0.7-0.2-1.3-0.4c-0.4-0.2-0.7-0.2-1.3-0.4c-0.9-0.2-1.6-0.4-2.5-0.5s-1.8-0.4-2.7-0.4C265.9,145.2,263,145,260.1,145
			L260.1,145z M254.1,156.6c1.5,0,0.5,1.5-2.2,4.2c-5.4,5.4-5.4,12.3,0,17.8c7.6,7.6,21.2,5.4,26.5-4.2l2.5-4.9v7.6
			c0.2,10.7-4,17.6-12.9,21.6c-9.3,4.2-12.5,4.2-21.8,0c-17.6-8-17.4-32.5,0.5-40.1C250.7,157.3,253.1,156.6,254.1,156.6
			L254.1,156.6z"/>
		<path id="path1118" class="st1" d="M95,245.2c-16.2-36.7-30.1-67.3-30.8-68.1c-0.7-0.7-4.4-0.2-7.8,1.3c-6.2,2.5-6.5,2.5-8.9-1.3
			C40.9,166.9,13,118.9,13,117.8c0-5.6,34.8-27.8,58.1-37C126,59,175.4,62.6,202.8,90c13.1,13.2,17.4,23.2,17.4,41.2
			c0,8,0.5,14.5,0.9,14.5c0.5,0,2.5-1.3,4.4-2.7c5.4-4.2,25-9.6,34.7-9.6c8.2,0,8.7-0.4,8.7-4.5c0-4.4-0.4-4.5-6.7-3.4l-6.9,1.3
			l-1.1-12c-0.5-6.5-1.1-15.6-1.1-20.1v-8l10.2-4.7c8.7-4,75.1-26,78.6-26c0.7,0,1.3,2,1.3,4.4v4.4l8-5.4c4.4-2.9,8.7-5.1,9.6-4.7
			s10.2,8.2,20.7,17.4c27.9,24.7,26.3,23.8,32.5,21.2c2.9-1.3,5.3-2.5,5.3-3.1c0-0.5-2-3.6-4.5-6.9l-4.5-6l28.5-32.8
			c27.4-31.2,40.1-42.5,43.9-38.5c2.9,3.3,30.3,45,29.8,45.5c-0.4,0.2-10,5.4-21.2,11.4c-11.4,6-20.7,11.8-20.7,12.7
			s2.4,1.6,5.3,1.6c7.4,0,24,6,31,11.4c6.5,5.1,9.4,4.5,9.6-1.5c0-13.8,6.7-17.1,34.3-17.1c18.1,0,20.9-0.4,27.8-4.4
			c7.3-4.2,9.3-4.4,33.6-4.4h25.8l1.8,11.1c1.1,6,3.6,22.1,5.8,35.7s4,24.9,4.2,25c0.2,0.2,4.2-1.6,9.1-4c4.9-2.4,13.8-5.4,20-6.7
			l11.3-2.4l-0.7-18.9l-0.4-18.7l7.4-3.8l7.4-3.8l38.5,8.5c31,6.9,38.5,9.1,38.5,11.4c0,4.7,1.8,5.3,7.3,2.5c4.5-2.4,7.3-2,35.6,4.7
			c16.7,4,31.2,8,32.1,8.7c0.9,0.7-12.5,43.6-29.8,95.1l-31.2,93.8l-6.9,3.4l-6.9,3.4l-23.8-7.4l-23.8-7.4v-9.3
			c0-8.2-0.5-9.4-4-10.2c-3.6-0.7-41-6.4-42.8-6.4c-0.4,0-0.5-0.9-0.2-2.2c0.4-1.3,1.1-6.7,1.6-12l1.1-9.8l-10.7,2.5l-10.7,2.7
			l1.1,8.2c1.1,8,0.9,8.3-5.4,12l-6.5,3.8l-31.9-5.6c-17.6-3.1-33.2-6-34.8-6.4c-2.2-0.5-3.4-3.4-4.2-9.6c-0.7-4.7-1.5-8.7-1.8-8.7
			s-3.1,1.3-6,2.7c-5.3,2.7-5.3,2.7-8.2-3.4c-3.3-7.1-4-7.3-11.1-3.6c-4.5,2.4-7.8,2.2-35.2-2.2c-33.6-5.3-31.4-3.8-28.3-20
			c0.9-5.1,1.5-9.6,1.1-10c-0.4-0.4-4.7,1.3-9.6,3.8c-4.9,2.5-12,5.3-15.6,6l-6.7,1.5l-0.5,24l-0.5,24l-6.7,3.1l-6.7,3.1l-49.2-24
			c-27-13.2-49.4-24-49.7-24s-0.5,7.4-0.5,16.7v16.7l-7.4,3.8c-4.9,2.5-16.7,5.1-34.5,7.6l-27,3.8l-0.2-5.4
			c-0.2-2.9-0.7-7.6-1.3-10.3l-1.1-4.9l-8.7,6.2c-24.5,17.4-57.2,15.1-76.4-5.6c-4.2-4.4-7.4-7.3-7.4-6.4s2.4,10.5,5.1,21.1
			l5.1,19.2l-6.4,4.5c-4.9,3.6-59,22.7-64.1,22.7C124.9,311.8,111.1,281.8,95,245.2L95,245.2z M163.8,280c6.7-2.2,12.9-4.5,13.6-5.1
			c0.7-0.5-3.1-17.4-8.3-37.2s-9.3-36.1-9.1-36.3c0.2-0.2,4.9-3.6,10.5-7.8c19.6-14.7,34.3-38.5,36.1-58.1
			c1.3-13.6-3.8-25.6-15.6-36.7c-11.3-10.5-21.1-14.7-40.3-17.2c-26.5-3.1-56.6,3.4-89.8,19.6c-12.5,6.2-16.3,8.7-15.6,11.1
			c1.3,4.9,20.9,37.2,22.5,37.2c0.9,0,4.4-1.3,7.8-2.9c3.8-1.8,6.9-2.4,7.6-1.3c0.7,0.9,3.8,7.3,6.9,14
			c16.3,36.7,54.1,120.5,55.5,123.2c0.9,1.8,2.7,2.9,3.8,2.5C150.5,284.7,157.1,282.4,163.8,280L163.8,280z M144.9,157
			c-8-26-8-26-4.2-28.1c2-1.1,8.2-2.2,13.8-2.2c8.7,0,10.9,0.5,16.3,5.4c6.9,6,9.1,13.6,7.3,24.1c-0.9,4.9-4,9.3-11.6,16.7
			c-5.6,5.6-11.1,10.2-12,10.2S149.3,171.3,144.9,157z M164.7,159.5c6.7-11.1,2.4-22.5-8.9-22.5c-2.9,0-5.3,0.5-5.3,1.1
			c0,3.6,7.8,27.2,9.1,27.2C160.5,165.3,162.9,162.8,164.7,159.5z M812.7,202.3c14.3-43.2,26-79.8,26.1-81.3c0-2.2-4.2-3.8-18.5-6.7
			c-10.3-2.2-18.9-3.6-19.2-3.4c-0.4,0.4-4,15.1-8.2,32.8c-4.2,17.8-8.2,32.1-8.7,32.1c-0.5,0-4.5-16.5-8.7-36.7
			c-4.2-20.1-7.8-36.8-8-37.2c-1.1-1.5-47.2-9.4-49.4-8.5c-1.5,0.5-2.5,3.3-2.5,6.4c0,4.5,0.9,5.8,5.4,7.4l5.4,2l-1.1,12.2
			c-1.1,11.6-0.9,12.3,4.9,20.5c8.3,11.8,10.5,19.8,9.6,35.6c-0.9,15.2-7.1,29.8-17.8,41.4c-5.4,6-6.4,8-6.7,17.6l-0.5,10.9l7.1,1.1
			c3.8,0.7,10.3,1.6,14.5,2.4l7.4,1.1l1.8-9.3c1.1-5.1,3.6-19.6,5.8-32.1l4-22.9l1.1,12.3c0.5,6.7,1.3,24.7,1.3,39.7
			c0.2,15.1,0.7,29,1.3,31.2c0.7,2.9,3.8,4.7,12,7.3c6,1.8,12,3.3,13.4,3.1C785.8,280.9,794.7,256.6,812.7,202.3L812.7,202.3z
			 M333.6,243.7c4-1.1,4-1.5,4-29.9v-29l54.6,27.4c30.1,15.1,55.5,27.4,56.6,27.4c1.3,0,1.6-5.4,1.3-15.2l-0.5-15.2l-10.7-2.9
			c-17.1-4.7-33.4-16.2-40.6-28.7c-0.9-1.5-11.1-6.4-22.7-10.9c-11.6-4.5-21.4-8.5-21.8-8.9c-0.4-0.4,9.8-11.4,22.5-24.9
			c12.7-13.2,22.9-24.7,22.9-25.4c-0.2-0.5-7.6-8.2-16.9-16.9l-16.7-15.8l-8.3,11.6c-4.5,6.4-12.3,17.1-17.1,23.6l-8.9,12.2
			l-1.5-22.9c-0.7-12.5-1.6-23-1.8-23.2c-0.2-0.2-10.7,2.5-23.2,6.4l-22.9,6.7l-0.5,6.7l-0.5,6.7l6.9-1.1l6.9-1.1l1.8,23.4
			c1.8,22.7,2,23.8,8,32.5c11.4,16.5,13.1,38.3,4.4,57.7c-3.3,7.3-3.8,11.4-3.4,21.1l0.5,12.2l11.8-1.1
			C324.4,245.2,331.4,244.2,333.6,243.7L333.6,243.7z M652.3,244.2c-0.2-0.7-0.5-2.7-0.5-4.4c0-1.8-3.4-5.1-7.8-7.8
			c-26-15.8-31-55.2-10.5-82l4.2-5.4l-5.3-33.4c-2.9-18.3-5.6-34.3-6-35.6c-0.9-2.5-24.9-3.3-26.3-0.7c-0.5,0.7-2.5,11.3-4.5,23.4
			c-5.8,34.1-5.1,34.5-13.1-9.4l-1.3-6.5h-18.3c-16,0-18.5,0.4-19.2,3.1c-0.5,1.6-3.4,18-6.4,36.1l-5.4,33l5.4,4.9l5.4,4.9l-7.6,8.2
			c-7.1,7.4-8,9.4-10,22.5c-1.3,7.8-1.8,14.7-1.5,15.2c1.3,1.3,27,6.2,32.3,6.2c3.8,0,4.2-1.3,6.9-19.8c5.4-36.5,3.6-35.4,16-9.3
			l10.9,22.9l6.9-17.6l6.9-17.6l2.2,13.2c1.3,7.3,3.6,22,5.3,32.7l3.1,19.4l16.7,2.9C648.1,246.2,653,246.4,652.3,244.2L652.3,244.2
			z M267.9,239.5c39.2-19.1,46.6-72.6,12.7-90.6c-10.2-5.4-30.5-5.4-42.1,0c-11.6,5.3-25.2,18.5-30.8,30.3
			c-6.5,13.1-6.9,32.5-0.9,43.7c4.2,8,12.5,15.8,20.7,19.4C235.8,246.2,257.2,244.6,267.9,239.5L267.9,239.5z M246.5,198.9
			c-17.6-8-17.4-32.5,0.5-40.1c8.5-3.6,9.8-3.1,4.9,1.8c-5.4,5.4-5.4,12.3,0,17.8c7.6,7.6,21.2,5.4,26.5-4.2l2.5-4.9v7.6
			c0.2,10.7-4,17.6-12.9,21.6C259,203.1,255.6,203.1,246.5,198.9L246.5,198.9z M694.6,223.9c25-11.1,39.9-40.5,32.3-63.5
			c-10.3-31-52.1-35.7-78-8.9c-21.4,22.1-21.8,51.5-1.1,69.1C658.1,229.4,679,230.8,694.6,223.9z M673,187.1
			c-7.6-4-14.2-13.4-14.2-20.7c0-7.6,5.4-15.8,12.9-19.2c9.4-4.5,12.7-3.8,7.4,1.5c-12.3,12.3,4.9,29.9,20,20.5
			c3.1-2,5.8-4.9,5.8-6.4s0.7-2.4,1.8-1.6c2.9,1.8,2,10.2-1.6,16.2C697.8,188.5,684.2,192.7,673,187.1L673,187.1z M480.8,190.7
			c5.3-1.6,12.7-4.4,16.7-6.4c10-4.9,24-16,23.4-18.1c-0.2-1.1-5.4-6.4-11.4-12l-11.1-10.2l-8,6.2c-7.8,6-20.1,10.7-24.3,9.3
			c-1.1-0.4,5.1-8.2,13.8-17.2c8.7-9.1,19.1-20,22.9-24.1l7.1-7.4l-5.8-6c-12-12.3-33.6-17.6-52.6-12.7
			c-21.6,5.4-34.5,14.9-42.1,30.7c-6,12.2-6.7,28.9-2,41.2c4,10.3,16,22,27,26.3C445,194.3,467.4,194.7,480.8,190.7L480.8,190.7z
			 M440.3,158.8c-3.4-1.3-9.3-13.8-9.3-20c0-12,9.3-23.4,21.1-25.8c7.1-1.5,16,0.4,20.9,4.2l4,3.1l-16.9,19.4
			C440.3,162.4,443.2,159.7,440.3,158.8z M453.2,135.2c10.7-12.9,11.3-14,5.4-14c-6,0-14.5,4.4-16.7,8.7c-3.1,5.8-2.2,16.2,1.6,16
			C444,145.7,448.5,141,453.2,135.2L453.2,135.2z M390.6,148.6c0-5.3-0.5-9.6-1.5-9.6c-0.7,0-4.4,3.1-8,6.9l-6.7,6.9l6.7,2.7
			c3.6,1.5,7.3,2.9,8,2.9C390.1,158.2,390.6,153.9,390.6,148.6z M474.8,58.8c10.9-5.4,19.8-10.7,19.8-11.8c0-2.4-14.2-21.1-16-21.1
			c-0.7,0-9.1,9.3-18.5,20.3c-13.6,16.3-16.7,20.9-15.1,22.9C447.8,72,448.7,71.9,474.8,58.8L474.8,58.8z"/>
	</g>
</g>
</svg>
