<?xml version="1.0" encoding="utf-8"?>
<!-- Generator: Adobe Illustrator 28.0.0, SVG Export Plug-In . SVG Version: 6.00 Build 0)  -->
<svg version="1.1"
	 id="svg8" xmlns:svg="http://www.w3.org/2000/svg" xmlns:cc="http://creativecommons.org/ns#" xmlns:dc="http://purl.org/dc/elements/1.1/" xmlns:rdf="http://www.w3.org/1999/02/22-rdf-syntax-ns#"
	 xmlns="http://www.w3.org/2000/svg" xmlns:xlink="http://www.w3.org/1999/xlink" x="0px" y="0px" viewBox="0 0 471 169"
	 style="enable-background:new 0 0 471 169;" xml:space="preserve">
<style type="text/css">
	.st0{fill:#FFEC14;}
	.st1{fill:#23378E;}
</style>
<g id="layer1">
	<g id="g1123">
		<path id="path1094" class="st0" d="M259.2,11.5c0,0-0.1,0.1-0.2,0.2c-0.1,0.1-0.3,0.2-0.4,0.4c-0.1,0.1-0.2,0.2-0.4,0.3
			c-0.6,0.6-1.3,1.4-2.3,2.4c0,0,0,0,0,0c-0.2,0.2-0.5,0.5-0.7,0.8c-0.8,0.8-1.6,1.8-2.5,2.8c-0.1,0.1-0.2,0.2-0.3,0.3
			c-0.5,0.6-1,1.2-1.6,1.8c0,0,0,0,0,0c-0.6,0.7-1.3,1.5-1.9,2.3c0,0,0,0,0,0c-0.2,0.2-0.3,0.3-0.4,0.5c-0.8,0.9-1.5,1.8-2.1,2.6
			c0,0,0,0,0,0c-1.9,2.3-3.3,4.1-4.2,5.4c0,0,0,0,0,0c-0.2,0.3-0.4,0.5-0.5,0.8c-0.3,0.5-0.6,0.9-0.7,1.2c-0.4,0.7-0.5,1.2-0.5,1.6
			c0,0.2,0.1,0.3,0.2,0.5c0.5,0.6,0.9,1,1.9,0.8c0.3-0.1,0.8-0.2,1.3-0.4c0.5-0.2,1.1-0.4,1.9-0.8c1.5-0.7,3.6-1.6,6.4-3
			c1.4-0.7,3-1.5,4.8-2.4c2.3-1.1,4.4-2.2,6.1-3.2c2.9-1.6,4.8-2.9,4.8-3.2c0-0.9-3.7-6.1-6.3-9.2c-0.5-0.6-0.9-1.1-1.3-1.5
			c-0.4-0.4-0.7-0.7-0.9-0.8C259.4,11.5,259.3,11.5,259.2,11.5L259.2,11.5z M332,37.7c-0.2,0-0.3,0-0.5,0c-0.2,0-0.5,0-0.7,0
			c-0.2,0-0.3,0-0.5,0c-0.2,0-0.4,0-0.7,0c-0.2,0-0.3,0-0.5,0c-0.2,0-0.4,0-0.6,0c-0.2,0-0.3,0-0.4,0c-0.2,0-0.3,0-0.5,0.1
			c-0.1,0-0.2,0-0.3,0.1c-0.2,0-0.3,0.1-0.4,0.1c-0.1,0-0.2,0-0.3,0.1c0,0-0.1,0-0.1,0c0,0-0.1,0-0.1,0c0,0-0.1,0-0.1,0.1
			c0,0-0.1,0-0.1,0c0,0-0.1,0-0.1,0.1c0,0,0,0,0,0c0,0-0.1,0.1-0.1,0.1c0,0,0,0,0,0c0,0.1-0.1,0.2-0.1,0.4
			c-0.4,1.5-1.4,6.7-2.4,12.5c-0.3,2-0.6,3.6-0.9,5.1c-0.1,0.3-0.1,0.7-0.2,1c0,0,0,0,0,0c0,0.1,0,0.2-0.1,0.4
			c-0.5,2.9-0.9,4.9-1.3,6c-0.2,0.5-0.3,0.8-0.5,1c0,0,0,0,0,0c0,0-0.1,0.1-0.1,0.1c0,0,0,0,0,0c0,0,0,0,0,0c-0.1,0-0.1,0-0.2-0.1
			c-0.2-0.2-0.4-0.6-0.7-1.5c0,0,0,0,0,0c-0.1-0.4-0.3-0.9-0.4-1.5c-0.4-1.8-0.9-4.4-1.5-7.8c0,0,0,0,0,0c-0.4-2.3-0.9-4.9-1.4-7.9
			l-0.7-3.6h-10.1c-3.8,0-6.3,0-7.8,0.2c-0.3,0-0.5,0.1-0.7,0.1c-0.3,0.1-0.6,0.1-0.9,0.2c-0.1,0-0.2,0.1-0.3,0.1
			c-0.4,0.2-0.6,0.5-0.8,0.8c0,0,0,0,0,0c0,0.1-0.1,0.2-0.1,0.3c-0.1,0.4-0.6,2.6-1.1,5.7c-0.1,0.3-0.1,0.5-0.1,0.8c0,0,0,0,0,0
			c0,0.3-0.1,0.6-0.2,0.9c-0.6,3.5-1.4,7.8-2.1,12.4l-3,18.2l3,2.7l3,2.7l0,0l-4.2,4.5c-1.9,2.1-3,3.4-3.8,5c0,0,0,0,0,0
			c-0.3,0.6-0.5,1.3-0.7,2.1c0,0,0,0,0,0c-0.4,1.3-0.7,3-1,5.2c-0.2,1.1-0.3,2.1-0.5,3.1c0,0,0,0,0,0c0,0.1,0,0.1,0,0.2
			c-0.1,0.9-0.2,1.7-0.3,2.5c0,0.4-0.1,0.7-0.1,1c-0.1,0.9,0,1.5,0.1,1.6c0,0,0.1,0,0.1,0.1c0,0,0,0,0,0c0,0,0.1,0.1,0.2,0.1
			c0,0,0,0,0,0c0,0,0.1,0,0.1,0c0.3,0.1,0.6,0.2,1,0.3c0.1,0,0.1,0,0.2,0c0,0,0,0,0,0c0.3,0.1,0.6,0.2,1,0.3
			c0.7,0.2,1.6,0.4,2.5,0.6c0.9,0.2,1.9,0.4,2.9,0.6c1,0.2,2,0.4,3,0.5c1.5,0.3,2.9,0.5,4.1,0.6c0,0,0,0,0,0c0.8,0.1,1.5,0.2,2,0.2
			c0,0,0,0,0,0c0.3,0,0.5,0,0.7,0c0.4,0,0.6,0,0.9-0.1c0.2-0.1,0.3-0.1,0.5-0.3c0,0,0.1-0.1,0.1-0.1c0.1-0.1,0.2-0.2,0.2-0.3
			c0,0,0,0,0,0c0,0,0-0.1,0.1-0.1c0.2-0.3,0.3-0.7,0.5-1.2c0-0.1,0-0.1,0-0.1c0,0,0,0,0,0c0.3-1.1,0.6-2.8,1-5.3c0,0,0,0,0,0
			c0-0.2,0.1-0.4,0.1-0.5c0.1-0.9,0.3-1.8,0.4-2.9c0.3-2.1,0.6-3.9,0.8-5.6c0-0.3,0.1-0.7,0.1-1c0,0,0,0,0,0c0.4-2.8,0.7-4.9,1-6.4
			c0,0,0,0,0,0c0.3-1.5,0.6-2.3,1-2.5c0,0,0,0,0,0c0,0,0.1,0,0.1,0c0.1,0,0.1,0,0.2,0c1,0.2,2.5,3.9,5.6,10.4l6,12.6l3.8-9.7
			l3.8-9.7l1.2,7.3c0.3,2,0.8,5,1.4,8.3c0,0,0,0,0,0c0.5,3.3,1.1,6.7,1.6,9.7c0,0,0,0,0,0l1.7,10.7l9.2,1.6c1.2,0.2,2.3,0.4,3.3,0.6
			c2,0.3,3.6,0.5,4.8,0.7s2.1,0.2,2.8,0.1c0.2,0,0.3,0,0.4,0c0.3-0.1,0.5-0.1,0.6-0.3c0.1-0.1,0.1-0.3,0.1-0.5
			c-0.1-0.2-0.1-0.6-0.2-1c0,0,0,0,0,0c0-0.4-0.1-0.9-0.1-1.4c0-0.1,0-0.1,0-0.2c0,0,0,0,0,0c0-0.2-0.2-0.4-0.3-0.7
			c-0.1-0.2-0.2-0.3-0.4-0.5c-0.2-0.2-0.3-0.4-0.5-0.6c-0.4-0.4-0.9-0.8-1.4-1.2c-0.5-0.4-1.1-0.8-1.7-1.2c-0.9-0.5-1.7-1.1-2.6-1.8
			c-0.4-0.3-0.8-0.7-1.2-1c-0.4-0.3-0.7-0.7-1.1-1.1c-0.2-0.2-0.4-0.4-0.5-0.6c0,0,0,0,0,0c-0.3-0.4-0.7-0.8-1-1.1c0,0,0,0,0,0
			c-0.2-0.2-0.3-0.4-0.5-0.6c0,0,0,0,0,0c-0.2-0.2-0.3-0.4-0.5-0.6c0,0,0,0,0,0c-0.4-0.6-0.9-1.3-1.3-1.9c0,0,0,0,0,0
			c-0.8-1.3-1.5-2.7-2-4.1c-1-2.4-1.6-4.9-1.9-7.5c-0.1-1-0.2-2.1-0.3-3.2c0-1.1,0-2.1,0-3.2c0.2-3.2,0.9-6.5,2-9.6c0,0,0,0,0,0
			c0.2-0.5,0.4-1,0.6-1.6c0.4-1,0.9-2,1.5-3c0,0,0,0,0,0c0.3-0.5,0.6-1,0.9-1.5c0.4-0.7,0.9-1.4,1.4-2.2c0.2-0.2,0.3-0.5,0.5-0.7
			l2.3-3l-2.9-18.4c-0.4-2.5-0.8-5-1.1-7.2c0,0,0,0,0,0c-0.9-5.6-1.7-10.1-2-11.7c-0.1-0.3-0.1-0.5-0.2-0.6c0,0-0.1-0.1-0.1-0.1
			c0,0,0,0-0.1,0c0,0-0.1-0.1-0.1-0.1c0,0-0.1,0-0.1,0c0,0-0.1-0.1-0.2-0.1c0,0-0.1,0-0.1,0c0,0-0.1,0-0.2-0.1
			c-0.2-0.1-0.4-0.1-0.6-0.2c0,0-0.1,0-0.1,0c-0.2,0-0.3-0.1-0.5-0.1c-0.2,0-0.4-0.1-0.6-0.1c-0.1,0-0.3,0-0.4-0.1
			c-0.2,0-0.5-0.1-0.8-0.1c-0.2,0-0.3,0-0.5,0c-0.3,0-0.6,0-0.9-0.1c-0.1,0-0.3,0-0.4,0c-0.3,0-0.6,0-1,0c-0.1,0-0.3,0-0.4,0
			C333,37.7,332.5,37.7,332,37.7L332,37.7z M196.9,38.4l-4.6,6.4c-2.5,3.5-6.8,9.4-9.4,13l-4.9,6.7l0,0l-0.8-12.6
			c-0.1-1.6-0.2-3.2-0.3-4.6c0-0.1,0-0.2,0-0.3c0-0.1,0-0.2,0-0.3c-0.3-3.6-0.5-6.5-0.6-7.3c0-0.2,0-0.3-0.1-0.3c0,0-0.4,0-1.1,0.2
			c-1.3,0.3-3.8,1-6.8,1.8c-1.5,0.4-3.2,0.9-4.9,1.4l-2.9,0.8l-9.7,2.9l-0.3,3.7v0l0,0.3l-0.3,3.4l0.6-0.1l3.2-0.5l3.8-0.6v0l1,12.9
			c0.4,5.5,0.7,8.6,1.1,10.9c0.1,0.6,0.3,1.2,0.4,1.7c0.1,0.3,0.2,0.5,0.3,0.8c0.4,1,0.9,1.9,1.5,2.9c0.3,0.5,0.7,1,1.1,1.7
			c0.8,1.1,1.5,2.3,2.1,3.5c0.3,0.6,0.6,1.2,0.9,1.9c0.4,0.9,0.7,1.9,1.1,2.9c0.4,1.3,0.7,2.6,1,4c0.1,0.7,0.2,1.4,0.3,2
			c0.1,1,0.2,2.1,0.2,3.1c0,0,0,0,0,0c0,1.4,0,2.8-0.2,4.2c0,0,0,0,0,0c-0.1,0.7-0.2,1.4-0.3,2.1c0,0,0,0,0,0
			c-0.2,1.4-0.6,2.8-1,4.1c0,0,0,0,0,0c-0.2,0.7-0.4,1.4-0.7,2c0,0,0,0,0,0c-0.1,0.3-0.3,0.7-0.4,1c0,0,0,0,0,0
			c-0.1,0.3-0.3,0.7-0.4,1c0,0,0,0,0,0c-0.7,1.5-1.1,2.7-1.4,4c0,0,0,0,0,0c-0.4,1.7-0.5,3.4-0.5,5.8c0,0.6,0,1.2,0.1,1.9l0.3,6.7
			l6.5-0.6c3.6-0.3,7.5-0.9,8.7-1.2c0.8-0.2,1.3-0.4,1.6-1.3c0,0,0,0,0,0c0.2-0.5,0.3-1.2,0.4-2.1c0.1-0.7,0.1-1.4,0.1-2.4
			c0-0.5,0-1,0-1.5c0,0,0,0,0,0c0-1.1,0-2.4,0-3.9v0c0-1.5,0-3.2,0-5.2v0V99l30.1,15.1h0c4.1,2.1,8.1,4.1,11.8,5.9
			c3.7,1.8,7,3.4,9.8,4.8c4.2,2,7.3,3.5,8.8,4.1c0.2,0.1,0.4,0.2,0.6,0.2c0,0,0,0,0,0c0.1,0.1,0.2,0.1,0.3,0.1c0,0,0.1,0,0.1,0
			c0,0,0.1-0.1,0.1-0.1c0.4-0.6,0.6-2.8,0.6-6.4c0,0,0,0,0,0c0,0,0,0,0,0c0-0.6,0-1.2,0-1.9l-0.3-8.4l-5.9-1.6c0,0,0,0,0,0
			c-0.3-0.1-0.6-0.2-0.9-0.3c0,0,0,0,0,0c-0.3-0.1-0.6-0.2-0.9-0.3c-0.6-0.2-1.2-0.4-1.7-0.6c-0.6-0.2-1.2-0.4-1.7-0.7
			c-0.6-0.2-1.1-0.5-1.7-0.8c-0.6-0.3-1.1-0.5-1.7-0.8c0,0,0,0,0,0c-0.5-0.3-1.1-0.6-1.6-0.9c0,0,0,0,0,0c-0.5-0.3-1-0.6-1.6-1
			c-0.8-0.5-1.6-1.1-2.3-1.6c-0.2-0.2-0.4-0.3-0.6-0.5c0,0,0,0,0,0c-0.5-0.4-0.9-0.7-1.4-1.1c0,0,0,0,0,0c-0.2-0.2-0.4-0.4-0.6-0.5
			c-0.4-0.4-0.9-0.8-1.3-1.2c-0.2-0.2-0.4-0.4-0.6-0.6c-0.2-0.2-0.4-0.4-0.6-0.6c-0.4-0.4-0.7-0.8-1.1-1.2c-0.5-0.6-1-1.3-1.4-1.9
			c-0.3-0.4-0.6-0.9-0.8-1.3c0,0-0.1-0.1-0.1-0.1c0,0,0,0-0.1-0.1c0,0-0.1-0.1-0.1-0.1c0,0-0.1-0.1-0.1-0.1c0,0,0,0,0,0
			c-0.1-0.1-0.2-0.1-0.3-0.2c0,0-0.1-0.1-0.1-0.1c-0.1-0.1-0.3-0.2-0.5-0.3c0,0,0,0,0,0c-0.3-0.2-0.8-0.4-1.2-0.7
			c-1.4-0.7-3.3-1.6-5.4-2.5c-1.4-0.6-3-1.3-4.6-1.9c0,0,0,0,0,0c-1.6-0.6-3.1-1.2-4.5-1.8c0,0,0,0,0,0c-1.4-0.6-2.7-1.1-3.8-1.5
			c-1.6-0.7-2.8-1.2-3.3-1.4c-0.2-0.1-0.3-0.1-0.3-0.2c0,0,0,0,0,0c0,0,0,0,0-0.1c0.1-0.2,0.4-0.5,0.8-1.1c0.3-0.4,0.7-0.8,1.1-1.3
			c0,0,0,0,0,0c0.4-0.5,0.9-1.1,1.5-1.7c2.2-2.5,5.4-5.9,8.9-9.5c5.2-5.5,9.7-10.4,11.6-12.7c0.5-0.6,0.8-1,0.9-1.2
			c0-0.1,0.1-0.1,0.1-0.1c0,0,0-0.1-0.1-0.1c0-0.1-0.1-0.1-0.2-0.2c-0.1-0.2-0.3-0.4-0.6-0.6c-1.4-1.5-4.7-4.8-8.5-8.3h0L196.9,38.4
			z M70.9,41.9c-0.3,0-0.5,0-0.8,0c-0.7,0-1.4,0-2.1,0.1c-0.1,0-0.3,0-0.4,0c-0.7,0-1.4,0.1-2.1,0.1c-0.1,0-0.1,0-0.2,0
			c-0.7,0.1-1.4,0.1-2.1,0.2c-0.1,0-0.2,0-0.3,0c-0.7,0.1-1.4,0.2-2.2,0.3c-0.1,0-0.3,0-0.4,0.1c-0.7,0.1-1.5,0.2-2.2,0.4
			c-0.8,0.1-1.5,0.3-2.3,0.4c-0.1,0-0.2,0-0.3,0.1c-0.7,0.2-1.5,0.3-2.2,0.5c-0.1,0-0.3,0.1-0.4,0.1c-0.7,0.2-1.5,0.4-2.2,0.6
			c0,0-0.1,0-0.1,0c-0.8,0.2-1.6,0.4-2.3,0.7c-0.1,0-0.3,0.1-0.4,0.1c-0.8,0.2-1.5,0.5-2.3,0.7c-0.1,0-0.3,0.1-0.4,0.1
			c-0.7,0.2-1.4,0.5-2.1,0.7c-0.1,0-0.2,0.1-0.3,0.1c-0.8,0.3-1.6,0.6-2.4,0.9c-0.2,0.1-0.3,0.1-0.5,0.2c-0.8,0.3-1.6,0.6-2.4,1
			c0,0-0.1,0-0.1,0.1c-0.8,0.3-1.6,0.7-2.3,1c-0.1,0.1-0.3,0.1-0.4,0.2c-0.8,0.4-1.6,0.7-2.4,1.1c-0.2,0.1-0.3,0.1-0.5,0.2
			c-0.8,0.4-1.7,0.8-2.5,1.2c0,0,0,0,0,0c-0.9,0.4-1.7,0.8-2.4,1.2c-1,0.5-1.8,0.9-2.5,1.3c-0.8,0.4-1.4,0.8-1.9,1.2
			c-0.1,0-0.2,0.1-0.2,0.1c-0.2,0.1-0.3,0.2-0.5,0.3c-0.3,0.2-0.5,0.4-0.7,0.6c-0.1,0.1-0.2,0.2-0.2,0.3c-0.3,0.4-0.3,0.7-0.2,1
			c0.1,0.3,0.3,0.9,0.7,1.7s0.8,1.7,1.4,2.7c1.1,2,2.6,4.5,4,6.9c0,0,0,0,0,0c0.7,1.2,1.4,2.4,2.1,3.5c0.7,1.1,1.3,2.1,1.9,2.9
			c0,0,0,0,0,0c0.6,0.9,1.1,1.6,1.5,2c0,0,0,0,0,0c0.3,0.4,0.5,0.6,0.7,0.7c0,0,0.1,0.1,0.1,0.1c0.1,0,0.1,0,0.2,0
			c0.1,0,0.2-0.1,0.4-0.1c0.8-0.3,2.3-0.8,3.7-1.5c0,0,0,0,0,0c0.1-0.1,0.3-0.1,0.4-0.2c0.2-0.1,0.4-0.2,0.5-0.2
			c0.4-0.2,0.8-0.3,1.2-0.4c0.7-0.2,1.3-0.2,1.7-0.1c0.1,0,0.1,0,0.2,0.1c0.1,0,0.2,0.1,0.2,0.2c0,0,0,0,0,0
			c0.1,0.1,0.3,0.4,0.5,0.9c0,0,0,0,0,0c0.5,0.9,1.2,2.4,2,4.1c0.4,0.9,0.8,1.8,1.2,2.7c7.8,17.7,24.7,55.2,29.4,65.4c0,0,0,0,0,0
			c0.7,1.4,1.1,2.3,1.2,2.5c0.1,0.1,0.1,0.2,0.2,0.3c0,0,0,0,0,0c0.1,0.1,0.2,0.2,0.2,0.3c0.3,0.3,0.5,0.5,0.8,0.6s0.6,0.2,0.8,0.1
			c0.6-0.2,4.2-1.4,7.9-2.6c0.9-0.3,1.8-0.6,2.7-0.9c0.8-0.3,1.6-0.6,2.3-0.8c0,0,0,0,0,0c0.2-0.1,0.4-0.1,0.6-0.2
			c0.4-0.2,0.8-0.3,1.1-0.4c0.2-0.1,0.4-0.2,0.5-0.2c0.1-0.1,0.2-0.1,0.3-0.2c0.1-0.1-0.1-1.5-0.5-3.7c-0.8-3.7-2.3-9.9-4.1-16.7
			c-0.7-2.7-1.4-5.3-2-7.7c-0.6-2.4-1.2-4.5-1.6-6.3c0,0,0,0,0,0c-0.9-3.6-1.4-5.9-1.4-5.9c0,0,0,0,0,0c0,0,0.2-0.1,0.4-0.3
			c0.1,0,0.1,0,0.2-0.1c0,0,0,0,0,0c0.3-0.2,0.7-0.5,1.3-0.9c1.1-0.8,2.5-1.9,4-3c1.3-1,2.7-2.1,3.9-3.3c0.6-0.6,1.2-1.2,1.8-1.8
			c0.3-0.3,0.6-0.6,0.9-0.9c0,0,0,0,0,0c0.6-0.6,1.2-1.3,1.7-1.9c0,0,0,0,0,0c0.3-0.3,0.6-0.6,0.8-1c0,0,0,0,0,0
			c0.2-0.3,0.4-0.5,0.6-0.8c0.1-0.1,0.1-0.1,0.2-0.2c0.5-0.7,1-1.3,1.5-2c0.4-0.5,0.8-1.1,1.1-1.7c0.1-0.1,0.2-0.3,0.3-0.4
			c0,0,0,0,0,0c0.2-0.3,0.5-0.7,0.7-1c0,0,0,0,0,0c0.4-0.7,0.9-1.4,1.3-2.1c0,0,0,0,0,0c0.4-0.7,0.8-1.4,1.1-2.1c0,0,0,0,0,0
			c0.4-0.7,0.7-1.4,1-2.2c0,0,0,0,0,0c0.2-0.4,0.3-0.7,0.5-1.1c0,0,0,0,0,0c0.1-0.4,0.3-0.7,0.4-1.1c0,0,0,0,0,0
			c0.3-0.7,0.5-1.4,0.7-2.1c0,0,0,0,0,0c0.1-0.4,0.2-0.7,0.3-1.1c0,0,0,0,0,0c0.1-0.4,0.2-0.7,0.3-1.1c0,0,0,0,0,0
			c0.1-0.4,0.2-0.7,0.2-1c0,0,0,0,0,0c0.1-0.3,0.1-0.7,0.2-1c0,0,0,0,0,0c0.1-0.7,0.2-1.4,0.3-2c0,0,0,0,0,0
			c0.1-0.9,0.1-1.9,0.1-2.8c0-0.9-0.1-1.8-0.2-2.7c-0.1-0.4-0.1-0.9-0.2-1.3c0,0,0,0,0,0c-0.1-0.4-0.2-0.9-0.3-1.3
			c-0.2-0.9-0.5-1.7-0.9-2.5c0,0,0,0,0,0c-0.9-2.1-2.1-4.1-3.7-6.1c0,0,0,0,0,0c-0.3-0.4-0.7-0.8-1-1.2s-0.7-0.8-1.1-1.2
			c-0.4-0.4-0.8-0.8-1.2-1.1c0,0,0,0,0,0c-0.8-0.7-1.5-1.4-2.3-2c-0.8-0.6-1.5-1.2-2.3-1.7c-0.8-0.5-1.6-1-2.4-1.5c0,0,0,0,0,0
			c-0.4-0.2-0.8-0.4-1.2-0.6c-0.4-0.2-0.8-0.4-1.3-0.6c-0.9-0.4-1.8-0.7-2.7-1c-1.9-0.6-3.9-1.1-6.3-1.5c-1.2-0.2-2.4-0.4-3.7-0.5
			c-0.5-0.1-1-0.1-1.6-0.2c-0.2,0-0.3,0-0.5,0c-0.4,0-0.7-0.1-1.1-0.1c-0.2,0-0.4,0-0.5,0c-0.4,0-0.8,0-1.2-0.1c-0.1,0-0.2,0-0.4,0
			c-0.6,0-1.1,0-1.7,0C71.2,41.9,71.1,41.9,70.9,41.9L70.9,41.9z M251.9,46.8c-0.7,0-1.4,0-2.1,0.1c-0.6,0-1.2,0.1-1.9,0.2
			c0,0-0.1,0-0.1,0c-0.3,0-0.7,0.1-1,0.1c-0.6,0.1-1.2,0.2-1.8,0.3c-0.1,0-0.3,0.1-0.4,0.1c-0.3,0.1-0.5,0.1-0.8,0.2
			c-0.5,0.1-1.1,0.3-1.6,0.4c-0.4,0.1-0.8,0.2-1.2,0.4c-0.5,0.1-1,0.3-1.4,0.4c-0.3,0.1-0.7,0.2-1,0.3c0,0,0,0,0,0
			c-0.2,0.1-0.4,0.1-0.6,0.2c-0.2,0.1-0.5,0.2-0.7,0.3c-0.2,0.1-0.4,0.1-0.6,0.2c0,0,0,0,0,0c-0.3,0.1-0.6,0.3-0.9,0.4
			c-0.3,0.1-0.6,0.3-0.9,0.4c-0.3,0.1-0.6,0.3-0.9,0.4c-0.3,0.1-0.6,0.3-0.8,0.4c-0.3,0.1-0.5,0.3-0.8,0.4c-0.5,0.3-1.1,0.6-1.6,0.9
			c-0.5,0.3-1,0.7-1.5,1c0,0,0,0,0,0c-0.2,0.2-0.5,0.3-0.7,0.5c-0.9,0.7-1.8,1.5-2.6,2.3c-0.2,0.2-0.4,0.4-0.6,0.6
			c-0.4,0.4-0.8,0.8-1.1,1.3c-0.4,0.4-0.7,0.9-1,1.4c0,0,0,0,0,0c-0.1,0.1-0.1,0.2-0.2,0.3c-0.4,0.6-0.8,1.2-1.2,1.9
			c-0.3,0.5-0.6,1-0.9,1.5c0,0,0,0,0,0c-0.1,0.3-0.3,0.5-0.4,0.8c-0.2,0.4-0.4,0.8-0.6,1.3c0,0,0,0,0,0c-1.1,2.6-1.8,5.5-2.1,8.5
			c0,0,0,0,0,0c0,0,0,0.1,0,0.1c-0.1,1-0.1,1.9-0.1,2.9c0,0.5,0,1,0,1.5c0,0,0,0,0,0c0,0.5,0.1,1,0.1,1.5c0,0,0,0,0,0
			c0,0.5,0.1,1,0.2,1.5c0.1,1,0.3,1.9,0.6,2.8c0.1,0.5,0.2,0.9,0.4,1.4c0.1,0.4,0.3,0.9,0.5,1.3c0,0,0,0,0,0
			c0.1,0.4,0.3,0.7,0.5,1.1c0,0,0,0,0,0c0.5,1.1,1.2,2.2,1.9,3.3c0.1,0.2,0.2,0.3,0.3,0.5c0.4,0.6,0.9,1.1,1.3,1.7
			c0.6,0.7,1.2,1.4,1.9,2c0.7,0.7,1.4,1.3,2.1,1.9c0.4,0.3,0.7,0.6,1.1,0.9c0.7,0.6,1.5,1.1,2.3,1.5c0.8,0.5,1.5,0.9,2.3,1.2
			c0.4,0.2,0.8,0.3,1.1,0.5c0,0,0,0,0,0c0.2,0.1,0.4,0.1,0.6,0.2c0,0,0,0,0,0c0.6,0.2,1.3,0.4,2,0.6c1.9,0.5,4,0.8,6.3,1
			c1.1,0.1,2.3,0.1,3.5,0.2c1.2,0,2.4,0,3.6-0.1c1.8-0.1,3.5-0.2,5.2-0.5c1.7-0.2,3.2-0.6,4.6-1c1.5-0.4,3.2-1,4.9-1.7
			c0.8-0.3,1.6-0.6,2.4-1c0.7-0.3,1.4-0.6,1.9-0.9c0.3-0.2,0.7-0.4,1-0.6c0.7-0.4,1.5-0.8,2.2-1.3c1.1-0.7,2.2-1.4,3.3-2.2
			c0.7-0.5,1.4-1,2.1-1.5c0.3-0.3,0.6-0.5,0.9-0.7c0.9-0.7,1.7-1.4,2.2-2c0.2-0.2,0.4-0.4,0.5-0.6c0.1-0.2,0.3-0.3,0.4-0.5
			c0-0.1,0.1-0.1,0.1-0.2c0-0.1,0.1-0.1,0.1-0.2c0-0.1,0.1-0.2,0-0.3c0-0.1-0.2-0.4-0.6-0.8c-0.2-0.2-0.4-0.4-0.6-0.7
			c-0.7-0.8-1.7-1.7-2.8-2.8c-0.7-0.7-1.5-1.5-2.4-2.2l-6.1-5.6l-4.4,3.4l0,0c-0.3,0.2-0.5,0.4-0.8,0.6c0,0,0,0,0,0
			c-0.6,0.4-1.2,0.8-1.8,1.2c0,0,0,0,0,0c-0.5,0.3-1.1,0.6-1.6,0.9c-0.3,0.1-0.5,0.3-0.8,0.4c-0.2,0.1-0.3,0.2-0.5,0.2c0,0,0,0,0,0
			c-0.2,0.1-0.4,0.2-0.5,0.2c-0.5,0.2-0.9,0.4-1.4,0.6c-0.9,0.4-1.9,0.6-2.7,0.8c-0.5,0.1-1,0.2-1.4,0.3c-0.3,0-0.5,0.1-0.8,0.1
			c-0.3,0-0.6,0-0.8-0.1c-0.1,0-0.2,0-0.2-0.1c0,0,0,0,0,0c0,0-0.1,0-0.1-0.1c0-0.1,0-0.2,0.1-0.4c0.3-0.7,1.4-2.1,2.9-3.8
			c0.2-0.2,0.4-0.5,0.6-0.7c0.5-0.6,1-1.1,1.6-1.8c0.2-0.3,0.5-0.5,0.7-0.8c0,0,0,0,0,0c0.6-0.6,1.1-1.2,1.7-1.8
			c4.8-5,10.5-11,12.6-13.3l0,0l3.9-4.1l-3.2-3.3c-0.3-0.3-0.6-0.6-0.9-0.8c-0.1-0.1-0.1-0.1-0.2-0.2c-0.3-0.3-0.6-0.5-0.9-0.8
			c-0.3-0.3-0.6-0.5-1-0.7c-0.1-0.1-0.2-0.1-0.3-0.2c-0.3-0.2-0.7-0.5-1-0.7c0,0,0,0,0,0c-0.3-0.2-0.7-0.4-1.1-0.6
			c-0.1-0.1-0.2-0.1-0.3-0.2c-0.4-0.2-0.7-0.4-1.1-0.6c-0.4-0.2-0.8-0.4-1.1-0.5c-0.1,0-0.2-0.1-0.3-0.1c-0.4-0.2-0.8-0.3-1.2-0.5
			c-0.4-0.2-0.8-0.3-1.2-0.4c-0.1,0-0.2-0.1-0.3-0.1c-0.4-0.1-0.8-0.3-1.2-0.4c0,0,0,0,0,0c-0.4-0.1-0.9-0.2-1.3-0.3
			c-0.1,0-0.2,0-0.3-0.1c-0.4-0.1-0.9-0.2-1.3-0.3c-0.4-0.1-0.9-0.1-1.3-0.2c-0.1,0-0.2,0-0.3,0c-0.4-0.1-0.9-0.1-1.3-0.1
			c0,0,0,0,0,0c-0.4,0-0.9-0.1-1.3-0.1c-0.1,0-0.2,0-0.3,0C252.8,46.8,252.4,46.8,251.9,46.8C251.9,46.8,251.9,46.8,251.9,46.8
			L251.9,46.8z M391.5,48.8c-0.1,0-0.2,0-0.3,0c-0.1,0-0.1,0-0.2,0c-0.1,0-0.1,0-0.2,0.1c-0.1,0.1-0.2,0.1-0.3,0.2
			c0,0-0.1,0.1-0.1,0.1c0,0,0,0,0,0c-0.2,0.2-0.3,0.5-0.5,0.8c0,0,0,0,0,0c-0.3,0.6-0.4,1.4-0.4,2.3c0,1.4,0.2,2.2,0.8,2.8
			c0.1,0.1,0.1,0.1,0.2,0.2c0.1,0.1,0.2,0.1,0.2,0.2c0.2,0.1,0.4,0.2,0.6,0.3c0.3,0.2,0.7,0.3,1.2,0.5l3,1.1v0l-0.6,6.7
			c-0.2,2.4-0.4,4-0.3,5.2c0,0.2,0,0.4,0.1,0.6c0,0,0,0.1,0,0.1c0.1,0.3,0.1,0.6,0.2,0.9c0,0,0,0.1,0,0.1c0,0.1,0.1,0.1,0.1,0.2
			c0,0.1,0.1,0.2,0.1,0.3c0,0,0,0,0,0c0.2,0.5,0.5,1.1,0.9,1.7c0,0,0,0,0,0c0.4,0.6,0.9,1.3,1.5,2.2c0.3,0.4,0.6,0.8,0.8,1.2
			c0,0,0,0,0,0c1,1.6,1.9,3,2.5,4.5c0.5,1.1,0.9,2.2,1.2,3.3c0.4,1.5,0.6,3.1,0.8,4.8c0.1,1.3,0.1,2.7,0,4.2c0,0,0,0,0,0
			c0,0,0,0.1,0,0.1c0,0.5,0,1-0.1,1.5c0,0.5-0.1,1.1-0.1,1.6c-0.1,0.5-0.1,1-0.2,1.6c0,0,0,0,0,0c0,0.1,0,0.2,0,0.3
			c-0.1,0.9-0.3,1.9-0.6,2.8c-0.4,1.5-0.8,3-1.4,4.5c-0.2,0.5-0.4,1-0.6,1.5c0,0,0,0,0,0c-0.2,0.5-0.4,1-0.7,1.4c0,0,0,0,0,0
			c-0.1,0.2-0.2,0.3-0.2,0.5c-0.4,0.8-0.8,1.5-1.3,2.3c-0.3,0.5-0.5,0.9-0.8,1.3c0,0,0,0,0,0c-0.6,0.9-1.2,1.8-1.9,2.6c0,0,0,0,0,0
			c-0.7,0.8-1.4,1.7-2.1,2.5c0,0,0,0,0,0c-0.8,0.8-1.3,1.5-1.8,2.1c0,0,0,0,0,0c-0.5,0.6-0.8,1.3-1.1,1.9c-0.1,0.2-0.1,0.3-0.2,0.5
			c0,0,0,0,0,0c-0.1,0.4-0.2,0.7-0.3,1.1c-0.2,1-0.3,2.3-0.4,3.9l-0.3,6l3.9,0.6c2.1,0.4,5.7,0.9,8,1.3l4.1,0.6l1-5.1
			c0.3-1.4,0.8-4.1,1.4-7.3c0.6-3.2,1.3-7,1.9-10.4v0l2.2-12.6l0.6,6.8v0c0.1,0.9,0.2,2.3,0.2,3.8c0,0,0,0,0,0
			c0,0.8,0.1,1.6,0.1,2.5c0,0,0,0,0,0c0.1,2.7,0.2,5.9,0.3,9.1c0,2.1,0.1,4.3,0.1,6.4c0,4.1,0.1,8.2,0.3,11.3c0,0,0,0,0,0
			c0.1,1.6,0.1,2.9,0.2,3.9c0,0,0,0,0,0c0,0.5,0.1,0.9,0.1,1.3c0,0,0,0,0,0c0,0.2,0,0.3,0.1,0.4c0,0,0,0,0,0c0,0.1,0,0.2,0.1,0.3
			c0,0,0,0,0,0c0.1,0.2,0.1,0.4,0.2,0.6c0,0,0,0,0,0c0.1,0.2,0.2,0.4,0.4,0.5c0,0,0,0,0,0c0.7,0.9,2.1,1.6,4.4,2.4c0,0,0,0,0,0
			c0.5,0.2,1,0.3,1.5,0.5c0.8,0.3,1.6,0.5,2.4,0.7c0.8,0.2,1.5,0.4,2.2,0.6c0,0,0,0,0,0c0.3,0.1,0.7,0.2,0.9,0.2c0,0,0,0,0,0
			c0.3,0.1,0.6,0.1,0.8,0.1c0,0,0,0,0,0c0.5,0.1,0.8,0.1,1,0.1c0,0,0,0,0,0c0,0,0.1,0,0.1,0c0.1-0.1,0.3-0.3,0.5-0.6
			c0.7-1.3,2-4.5,4-9.9c0,0,0,0,0,0c1.3-3.6,2.9-8,4.7-13.5c1.9-5.5,4-11.9,6.5-19.4c2-5.9,3.8-11.7,5.6-16.9
			c1.7-5.3,3.3-10,4.6-14.1c1.3-4.1,2.4-7.4,3.1-9.8c0.7-2.4,1.1-3.8,1.2-4c0-0.3-0.1-0.6-0.5-0.8c-0.2-0.1-0.4-0.3-0.7-0.4
			c-0.3-0.1-0.6-0.3-1-0.4c-0.2-0.1-0.4-0.1-0.6-0.2c-0.2-0.1-0.5-0.2-0.7-0.2c-0.5-0.2-1.1-0.3-1.8-0.5c-0.7-0.2-1.4-0.3-2.2-0.5
			c-0.8-0.2-1.7-0.4-2.7-0.6c0,0,0,0,0,0c-1.4-0.3-2.8-0.6-4-0.8c-1.2-0.2-2.4-0.5-3.3-0.6c-0.5-0.1-0.9-0.2-1.3-0.2
			c-1.2-0.2-1.9-0.3-1.9-0.2c0,0-0.1,0.2-0.1,0.4c0,0,0,0,0,0c-0.2,0.8-0.7,2.6-1.3,5c-0.8,3.3-1.9,7.8-3,12.6
			c-0.3,1.2-0.6,2.4-0.9,3.6c-1.4,5.8-2.7,10.5-3.4,12.8c-0.1,0.3-0.2,0.5-0.2,0.7c0,0.1-0.1,0.3-0.1,0.4c0,0,0,0,0,0
			c0,0.1-0.1,0.2-0.1,0.3c0,0,0,0,0,0c0,0.1-0.1,0.1-0.1,0.1c0,0,0,0,0,0c0,0,0,0-0.1-0.1c0,0,0,0,0,0c0-0.1-0.1-0.2-0.1-0.3
			c0,0,0,0,0,0c-0.1-0.3-0.2-0.7-0.4-1.2c0,0,0,0,0,0c-0.3-1-0.7-2.5-1.1-4.3c0,0,0,0,0,0c-0.2-0.9-0.5-1.9-0.7-3c0,0,0,0,0,0
			c-0.2-1.1-0.5-2.2-0.8-3.4c-0.5-2.4-1.1-5.1-1.7-7.8c-0.6-2.8-1.1-5.4-1.7-7.9c-0.5-2.4-1-4.6-1.4-6.5c-0.8-3.7-1.3-6-1.4-6.1
			c0,0,0,0,0,0c0,0,0,0-0.1,0c0,0-0.1,0-0.1,0c0,0-0.1,0-0.1-0.1c-0.1,0-0.2-0.1-0.4-0.1c-0.2,0-0.3-0.1-0.5-0.1
			c-0.2,0-0.4-0.1-0.6-0.2c-0.2,0-0.4-0.1-0.6-0.1c-0.3-0.1-0.6-0.1-0.9-0.2c-0.2,0-0.4-0.1-0.6-0.1c-0.6-0.1-1.3-0.3-2-0.4
			c-0.7-0.1-1.4-0.3-2.1-0.4c-0.7-0.1-1.4-0.2-2-0.4c-0.9-0.2-1.7-0.3-2.6-0.5c-0.6-0.1-1.3-0.2-1.9-0.3c-0.9-0.2-1.9-0.3-2.8-0.5
			c-0.7-0.1-1.3-0.2-1.9-0.3c-1-0.2-2.1-0.3-3-0.4c-0.1,0-0.2,0-0.3,0c-0.4-0.1-0.8-0.1-1.2-0.2c-0.2,0-0.4,0-0.5-0.1
			c-0.3,0-0.6-0.1-0.9-0.1c-0.2,0-0.4,0-0.5-0.1C392.1,48.8,391.8,48.8,391.5,48.8C391.5,48.8,391.5,48.8,391.5,48.8L391.5,48.8z
			 M247.6,59.2c3.1,0.1,6.4,1,8.5,2.6l2.2,1.7l-9.3,10.7c-10.9,12.5-9.4,11-10.9,10.5c-1.9-0.7-5.1-7.6-5.1-11
			c0-6.6,5.1-12.9,11.6-14.2C245.5,59.3,246.5,59.2,247.6,59.2z M80.5,66.9c4.8,0,6,0.3,9,3c3.8,3.3,5.1,7.5,4,13.3
			c-0.5,2.7-2.2,5.1-6.4,9.2c-3.1,3.1-6.1,5.6-6.6,5.6c-0.5,0-2.8-6.5-5.2-14.3c-4.4-14.3-4.4-14.3-2.3-15.5
			C74,67.5,77.4,67,80.5,66.9z M374.5,71c-0.4,0-0.8,0-1.3,0c-0.1,0-0.1,0-0.2,0c-0.4,0-0.8,0.1-1.2,0.1c-0.1,0-0.2,0-0.2,0
			c-0.4,0-0.8,0.1-1.2,0.2c-0.1,0-0.1,0-0.2,0c-0.4,0.1-0.9,0.2-1.3,0.2c-0.4,0.1-0.9,0.2-1.3,0.3c0,0-0.1,0-0.1,0
			c-0.4,0.1-0.8,0.2-1.3,0.4c-0.1,0-0.1,0-0.2,0.1c-0.4,0.1-0.8,0.3-1.2,0.4c-0.1,0-0.1,0.1-0.2,0.1c-0.9,0.3-1.7,0.7-2.5,1.1
			c-0.1,0-0.1,0.1-0.2,0.1c-0.4,0.2-0.8,0.4-1.2,0.6c-0.1,0-0.1,0.1-0.2,0.1c-0.4,0.2-0.8,0.5-1.2,0.7c-0.1,0-0.1,0.1-0.2,0.1
			c-0.4,0.3-0.8,0.5-1.2,0.8c-0.4,0.3-0.8,0.6-1.2,0.9c-0.1,0-0.1,0.1-0.2,0.1c-0.4,0.3-0.7,0.6-1.1,0.9c-0.1,0-0.1,0.1-0.2,0.1
			c-0.4,0.3-0.7,0.6-1.1,1c0,0-0.1,0.1-0.1,0.1c-0.4,0.4-0.8,0.7-1.1,1.1c-1.1,1.1-2.1,2.3-3,3.5c0,0,0,0,0,0
			c-0.3,0.4-0.6,0.8-0.9,1.2c0,0,0,0,0,0c-0.6,0.8-1.1,1.6-1.5,2.5c0,0,0,0,0,0c-0.2,0.4-0.5,0.8-0.7,1.3c0,0,0,0,0,0
			c-0.2,0.4-0.4,0.8-0.6,1.3c0,0,0,0,0,0c-0.2,0.4-0.4,0.8-0.5,1.3c0,0,0,0,0,0c-0.2,0.4-0.3,0.9-0.5,1.3c0,0,0,0,0,0
			c-0.1,0.4-0.3,0.9-0.4,1.3c0,0,0,0,0,0c-0.1,0.4-0.2,0.9-0.3,1.3c0,0,0,0,0,0c0,0.1,0,0.1,0,0.2c-0.2,0.8-0.3,1.6-0.4,2.4
			c-0.1,0.9-0.2,1.7-0.2,2.6c0,0.8,0,1.7,0.1,2.5c0,0,0,0,0,0c0.2,1.7,0.5,3.3,1,4.9c0.3,0.8,0.6,1.6,0.9,2.4
			c0.2,0.4,0.4,0.8,0.6,1.1c0.6,1.1,1.3,2.2,2.1,3.3c0.3,0.3,0.5,0.7,0.8,1c0.3,0.3,0.6,0.7,0.9,1c0.3,0.3,0.6,0.7,1,1
			c0.3,0.3,0.7,0.6,1,0.9c0,0,0,0,0,0c0.2,0.2,0.4,0.3,0.5,0.4c0,0,0,0,0,0c0.2,0.1,0.4,0.3,0.6,0.4c0,0,0,0,0,0
			c0.2,0.1,0.4,0.3,0.6,0.4c0,0,0,0,0,0c0.2,0.1,0.4,0.3,0.6,0.4c0.2,0.1,0.4,0.2,0.7,0.3c0.2,0.1,0.5,0.2,0.7,0.3c0,0,0,0,0,0
			c0.2,0.1,0.5,0.2,0.7,0.3c0,0,0,0,0,0c0.2,0.1,0.5,0.2,0.7,0.3c0.3,0.1,0.5,0.2,0.8,0.2c0.3,0.1,0.5,0.2,0.8,0.2c0,0,0,0,0,0
			c0.3,0.1,0.5,0.1,0.8,0.2c0,0,0,0,0,0c0.3,0.1,0.5,0.1,0.8,0.2c0.3,0.1,0.6,0.1,0.8,0.2c0.6,0.1,1.1,0.2,1.7,0.2
			c1.4,0.1,2.9,0.2,4.4,0.1c0.3,0,0.6,0,0.9-0.1c0.6,0,1.2-0.1,1.8-0.2s1.2-0.2,1.8-0.3c0.6-0.1,1.2-0.2,1.8-0.4
			c0.6-0.1,1.2-0.3,1.7-0.5c0.6-0.2,1.1-0.4,1.7-0.6c0.3-0.1,0.5-0.2,0.8-0.3c0.6-0.3,1.1-0.5,1.7-0.8c0.7-0.4,1.4-0.7,2-1.1
			c0.6-0.4,1.2-0.8,1.8-1.2c1.3-0.9,2.5-2,3.6-3.1c0.3-0.3,0.7-0.7,1-1c0.6-0.7,1.2-1.4,1.8-2.1c0.3-0.4,0.6-0.7,0.8-1.1
			c1.9-2.6,3.4-5.4,4.4-8.3c0,0,0,0,0,0c0.7-2.1,1.3-4.2,1.5-6.3c0,0,0,0,0,0c0-0.4,0.1-0.8,0.1-1.3c0,0,0,0,0,0
			c0.1-1.3,0.1-2.5,0-3.8c0,0,0,0,0,0c-0.1-1.3-0.3-2.5-0.6-3.7c0,0,0,0,0,0c-0.1-0.4-0.2-0.8-0.4-1.2c-0.1-0.3-0.2-0.6-0.3-0.9
			c0-0.1,0-0.1-0.1-0.2c-0.1-0.2-0.2-0.4-0.3-0.6c0-0.1-0.1-0.2-0.1-0.3c-0.1-0.2-0.2-0.3-0.2-0.5c-0.1-0.1-0.1-0.2-0.2-0.3
			c-0.1-0.2-0.2-0.3-0.2-0.5c0-0.1-0.1-0.2-0.1-0.3c-0.1-0.2-0.2-0.3-0.3-0.5c0-0.1-0.1-0.2-0.1-0.2c-0.1-0.2-0.2-0.3-0.3-0.5
			c0-0.1-0.1-0.2-0.1-0.2c-0.1-0.2-0.2-0.4-0.4-0.5c0-0.1-0.1-0.1-0.1-0.2c-0.3-0.5-0.7-0.9-1-1.3c0,0-0.1-0.1-0.1-0.1
			c-0.1-0.2-0.3-0.3-0.4-0.5c-0.1-0.1-0.1-0.1-0.2-0.2c-0.1-0.1-0.2-0.3-0.4-0.4c-0.1-0.1-0.1-0.1-0.2-0.2c-0.1-0.1-0.2-0.2-0.4-0.3
			c-0.1-0.1-0.2-0.1-0.2-0.2c-0.1-0.1-0.3-0.2-0.4-0.3c-0.1-0.1-0.1-0.1-0.2-0.2c-0.1-0.1-0.3-0.2-0.5-0.4c-0.1,0-0.1-0.1-0.2-0.1
			c-0.2-0.1-0.4-0.3-0.6-0.4c0,0-0.1,0-0.1-0.1c-0.2-0.2-0.4-0.3-0.7-0.5c-0.2-0.1-0.5-0.3-0.7-0.4c0,0-0.1-0.1-0.1-0.1
			c-0.2-0.1-0.4-0.2-0.5-0.3c-0.1,0-0.2-0.1-0.2-0.1c-0.2-0.1-0.3-0.2-0.5-0.3c-0.1,0-0.1-0.1-0.2-0.1c-0.2-0.1-0.3-0.2-0.5-0.2
			c-0.1,0-0.2-0.1-0.3-0.1c-0.2-0.1-0.3-0.1-0.5-0.2c-0.1,0-0.2-0.1-0.3-0.1c-0.2-0.1-0.3-0.1-0.5-0.2c-0.1,0-0.1-0.1-0.2-0.1
			c-0.2-0.1-0.5-0.2-0.7-0.2c0,0,0,0-0.1,0c0,0,0,0,0,0c-0.3-0.1-0.5-0.2-0.8-0.2c0,0,0,0,0,0c-0.3-0.1-0.5-0.1-0.8-0.2
			c0,0-0.1,0-0.1,0c-0.2-0.1-0.5-0.1-0.7-0.2c-0.1,0-0.1,0-0.2,0c-0.2,0-0.4-0.1-0.6-0.1c-0.1,0-0.2,0-0.3-0.1c-0.2,0-0.3,0-0.5-0.1
			c-0.1,0-0.2,0-0.3,0c-0.2,0-0.4,0-0.5-0.1c-0.1,0-0.2,0-0.3,0c-0.2,0-0.4,0-0.6,0c-0.1,0-0.2,0-0.2,0c-0.2,0-0.4,0-0.6,0
			c-0.1,0-0.1,0-0.2,0C375.1,71,374.8,71,374.5,71L374.5,71z M370.3,76.6c1.1,0,0.9,0.8-0.7,2.4c-6.8,6.8,2.7,16.5,11,11.3
			c1.7-1.1,3.2-2.7,3.2-3.5c0-0.8,0.4-1.3,1-0.9c1.6,1,1.1,5.6-0.9,8.9c-3.8,6.3-11.4,8.6-17.5,5.5c-4.2-2.2-7.8-7.4-7.8-11.4
			c0-4.2,3-8.7,7.1-10.6C367.8,77.2,369.4,76.6,370.3,76.6L370.3,76.6z M138.7,77.1c-0.5,0-1.1,0-1.6,0c0,0-0.1,0-0.1,0
			c-1,0-2,0.1-2.9,0.2c-0.6,0.1-1.2,0.2-1.7,0.3c-0.5,0.1-1,0.2-1.5,0.3c-0.2,0.1-0.5,0.1-0.7,0.2c-0.2,0.1-0.5,0.1-0.7,0.2
			c-0.2,0.1-0.5,0.1-0.7,0.2c-0.2,0.1-0.4,0.2-0.7,0.2c-0.4,0.2-0.9,0.3-1.3,0.5c-1,0.4-1.9,1-2.9,1.6c-0.5,0.3-1,0.6-1.5,1
			c-0.2,0.1-0.3,0.2-0.5,0.4c-5,3.6-9.7,8.9-12.1,13.8c-0.2,0.5-0.4,0.9-0.6,1.4c-0.1,0.2-0.2,0.5-0.3,0.7c-1,2.7-1.6,5.7-1.8,8.7
			c0,0,0,0,0,0c-0.1,1.1-0.1,2.2-0.1,3.3c0,0,0,0,0,0c0,1.1,0.1,2.1,0.3,3.2c0.1,0.5,0.2,1,0.2,1.5c0,0.2,0.1,0.5,0.2,0.7
			c0.1,0.5,0.2,1,0.4,1.4c0.1,0.2,0.1,0.5,0.2,0.7c0,0,0,0,0,0c0.2,0.7,0.5,1.3,0.8,1.9c0,0,0,0,0,0c0.1,0.2,0.2,0.4,0.3,0.6
			c0,0,0,0,0,0c0.4,0.8,0.9,1.6,1.5,2.4c0,0,0,0,0,0c0.4,0.5,0.8,1.1,1.2,1.6c0.2,0.3,0.4,0.5,0.7,0.8c0,0,0,0,0,0
			c0.5,0.5,0.9,1,1.4,1.5c0.5,0.5,1,0.9,1.5,1.3c0.8,0.6,1.6,1.2,2.5,1.8c0.6,0.4,1.1,0.7,1.7,1c0.3,0.1,0.6,0.3,0.9,0.4
			c0.1,0.1,0.3,0.1,0.5,0.2c0.3,0.1,0.7,0.2,1,0.3c5.3,1.4,15.6,0.5,20.9-2.1c1-0.5,2-1,2.9-1.6c0.6-0.4,1.2-0.8,1.8-1.2
			c0.9-0.6,1.7-1.3,2.5-2c1.6-1.4,3.1-2.9,4.3-4.5c0.4-0.5,0.8-1.1,1.2-1.6c0.2-0.3,0.4-0.6,0.6-0.8c0.3-0.5,0.6-0.9,0.9-1.4
			c0.1-0.1,0.1-0.2,0.2-0.3c0,0,0,0,0,0c0.7-1.1,1.3-2.3,1.8-3.5c0,0,0,0,0,0c0.1-0.3,0.3-0.6,0.4-0.9c0,0,0,0,0,0
			c0.2-0.6,0.5-1.2,0.7-1.8c0,0,0,0,0,0c0.4-1.2,0.7-2.5,1-3.7c0.3-1.5,0.5-3.1,0.6-4.6c0.1-1.2,0-2.5-0.1-3.7
			c-0.1-0.6-0.1-1.2-0.2-1.8c0-0.3-0.1-0.6-0.2-0.9c-0.2-0.9-0.4-1.7-0.7-2.6c-0.2-0.6-0.4-1.1-0.6-1.7c0,0,0,0,0,0
			c-0.2-0.5-0.5-1.1-0.7-1.6c-0.3-0.5-0.5-1-0.8-1.6c-0.3-0.5-0.6-1-1-1.5c-0.3-0.5-0.7-1-1.1-1.4c-0.4-0.5-0.8-0.9-1.2-1.3
			c-0.4-0.4-0.9-0.8-1.4-1.2c-0.2-0.2-0.5-0.4-0.7-0.6c-0.2-0.2-0.5-0.4-0.8-0.6c-0.3-0.2-0.5-0.4-0.8-0.5c-0.3-0.2-0.5-0.3-0.8-0.5
			c-0.3-0.2-0.6-0.3-0.9-0.5c0,0,0,0,0,0c-0.2-0.1-0.4-0.2-0.5-0.3c0,0,0,0,0,0c-0.2-0.1-0.4-0.2-0.6-0.3c0,0,0,0,0,0
			c-0.2-0.1-0.4-0.2-0.6-0.2c0,0,0,0,0,0c-0.2-0.1-0.4-0.1-0.6-0.2c0,0,0,0,0,0c-0.2-0.1-0.4-0.1-0.7-0.2c-0.2-0.1-0.4-0.1-0.7-0.2
			c-0.5-0.1-0.9-0.2-1.4-0.3c-0.5-0.1-1-0.2-1.5-0.2C141.9,77.2,140.3,77.1,138.7,77.1L138.7,77.1z M135.4,83.5
			c0.8,0,0.3,0.8-1.2,2.3c-3,3-3,6.8,0,9.8c4.2,4.2,11.7,3,14.6-2.3l1.4-2.7l0,4.2c0.1,5.9-2.2,9.7-7.1,11.9c-5.1,2.3-6.9,2.3-12,0
			c-9.7-4.4-9.6-17.9,0.3-22.1C133.5,83.9,134.8,83.5,135.4,83.5L135.4,83.5z"/>
		<path id="path1118" class="st1" d="M47.7,132.3c-8.9-20.2-16.6-37.1-17-37.5c-0.4-0.4-2.4-0.1-4.3,0.7c-3.4,1.4-3.6,1.4-4.9-0.7
			c-3.6-5.6-19-32.1-19-32.7c0-3.1,19.2-15.3,32-20.4c30.3-12,57.5-10,72.6,5.1c7.2,7.3,9.6,12.8,9.6,22.7c0,4.4,0.3,8,0.5,8
			c0.3,0,1.4-0.7,2.4-1.5c3-2.3,13.8-5.3,19.1-5.3c4.5,0,4.8-0.2,4.8-2.5c0-2.4-0.2-2.5-3.7-1.9L136,67l-0.6-6.6
			c-0.3-3.6-0.6-8.6-0.6-11.1l0-4.4l5.6-2.6c4.8-2.2,41.4-14.3,43.3-14.3c0.4,0,0.7,1.1,0.7,2.4v2.4l4.4-3c2.4-1.6,4.8-2.8,5.3-2.6
			c0.5,0.2,5.6,4.5,11.4,9.6c15.4,13.6,14.5,13.1,17.9,11.7c1.6-0.7,2.9-1.4,2.9-1.7c0-0.3-1.1-2-2.5-3.8l-2.5-3.3L237,21.6
			c15.1-17.2,22.1-23.4,24.2-21.2c1.6,1.8,16.7,24.8,16.4,25.1c-0.2,0.1-5.5,3-11.7,6.3c-6.3,3.3-11.4,6.5-11.4,7
			c0,0.5,1.3,0.9,2.9,0.9c4.1,0,13.2,3.3,17.1,6.3c3.6,2.8,5.2,2.5,5.3-0.8c0-7.6,3.7-9.4,18.9-9.4c10,0,11.5-0.2,15.3-2.4
			c4-2.3,5.1-2.4,18.5-2.4l14.2,0l1,6.1c0.6,3.3,2,12.2,3.2,19.7c1.2,7.5,2.2,13.7,2.3,13.8c0.1,0.1,2.3-0.9,5-2.2
			c2.7-1.3,7.6-3,11-3.7l6.2-1.3L375,53l-0.2-10.3l4.1-2.1l4.1-2.1l21.2,4.7c17.1,3.8,21.2,5,21.2,6.3c0,2.6,1,2.9,4,1.4
			c2.5-1.3,4-1.1,19.6,2.6c9.2,2.2,17.2,4.4,17.7,4.8c0.5,0.4-6.9,24-16.4,52.4l-17.2,51.7l-3.8,1.9l-3.8,1.9l-13.1-4.1l-13.1-4.1
			v-5.1c0-4.5-0.3-5.2-2.2-5.6c-2-0.4-22.6-3.5-23.6-3.5c-0.2,0-0.3-0.5-0.1-1.2c0.2-0.7,0.6-3.7,0.9-6.6l0.6-5.4L369,132l-5.9,1.5
			l0.6,4.5c0.6,4.4,0.5,4.6-3,6.6l-3.6,2.1l-17.6-3.1c-9.7-1.7-18.3-3.3-19.2-3.5c-1.2-0.3-1.9-1.9-2.3-5.3c-0.4-2.6-0.8-4.8-1-4.8
			c-0.2,0-1.7,0.7-3.3,1.5c-2.9,1.5-2.9,1.5-4.5-1.9c-1.8-3.9-2.2-4-6.1-2c-2.5,1.3-4.3,1.2-19.4-1.2c-18.5-2.9-17.3-2.1-15.6-11
			c0.5-2.8,0.8-5.3,0.6-5.5c-0.2-0.2-2.6,0.7-5.3,2.1c-2.7,1.4-6.6,2.9-8.6,3.3l-3.7,0.8l-0.3,13.2l-0.3,13.2l-3.7,1.7l-3.7,1.7
			l-27.1-13.2c-14.9-7.3-27.2-13.2-27.4-13.2c-0.2,0-0.3,4.1-0.3,9.2v9.2l-4.1,2.1c-2.7,1.4-9.2,2.8-19,4.2l-14.9,2.1l-0.1-3
			c-0.1-1.6-0.4-4.2-0.7-5.7l-0.6-2.7l-4.8,3.4c-13.5,9.6-31.5,8.3-42.1-3.1c-2.3-2.4-4.1-4-4.1-3.5c0,0.5,1.3,5.8,2.8,11.6
			l2.8,10.6l-3.5,2.5c-2.7,2-32.5,12.5-35.3,12.5C64.2,169,56.6,152.5,47.7,132.3L47.7,132.3z M85.6,151.5c3.7-1.2,7.1-2.5,7.5-2.8
			c0.4-0.3-1.7-9.6-4.6-20.5c-2.9-10.9-5.1-19.9-5-20c0.1-0.1,2.7-2,5.8-4.3c10.8-8.1,18.9-21.2,19.9-32c0.7-7.5-2.1-14.1-8.6-20.2
			c-6.2-5.8-11.6-8.1-22.2-9.5C63.8,40.5,47.2,44.1,28.9,53c-6.9,3.4-9,4.8-8.6,6.1c0.7,2.7,11.5,20.5,12.4,20.5
			c0.5,0,2.4-0.7,4.3-1.6c2.1-1,3.8-1.3,4.2-0.7c0.4,0.5,2.1,4,3.8,7.7c9,20.2,29.8,66.4,30.6,67.9c0.5,1,1.5,1.6,2.1,1.4
			S81.9,152.8,85.6,151.5L85.6,151.5z M75.2,83.7c-4.4-14.3-4.4-14.3-2.3-15.5c1.1-0.6,4.5-1.2,7.6-1.2c4.8,0,6,0.3,9,3
			c3.8,3.3,5,7.5,4,13.3c-0.5,2.7-2.2,5.1-6.4,9.2c-3.1,3.1-6.1,5.6-6.6,5.6S77.6,91.6,75.2,83.7z M86.1,85.1
			c3.7-6.1,1.3-12.4-4.9-12.4c-1.6,0-2.9,0.3-2.9,0.6c0,2,4.3,15,5,15C83.8,88.3,85.1,86.9,86.1,85.1z M443.2,108.7
			c7.9-23.8,14.3-44,14.4-44.8c0-1.2-2.3-2.1-10.2-3.7c-5.7-1.2-10.4-2-10.6-1.9c-0.2,0.2-2.2,8.3-4.5,18.1
			c-2.3,9.8-4.5,17.7-4.8,17.7c-0.3,0-2.5-9.1-4.8-20.2c-2.3-11.1-4.3-20.3-4.4-20.5c-0.6-0.8-26-5.2-27.2-4.7
			c-0.8,0.3-1.4,1.8-1.4,3.5c0,2.5,0.5,3.2,3,4.1l3,1.1l-0.6,6.7c-0.6,6.4-0.5,6.8,2.7,11.3c4.6,6.5,5.8,10.9,5.3,19.6
			c-0.5,8.4-3.9,16.4-9.8,22.8c-3,3.3-3.5,4.4-3.7,9.7l-0.3,6l3.9,0.6c2.1,0.4,5.7,0.9,8,1.3l4.1,0.6l1-5.1c0.6-2.8,2-10.8,3.2-17.7
			l2.2-12.6l0.6,6.8c0.3,3.7,0.7,13.6,0.7,21.9c0.1,8.3,0.4,16,0.7,17.2c0.4,1.6,2.1,2.6,6.6,4c3.3,1,6.6,1.8,7.4,1.7
			C428.4,152,433.3,138.6,443.2,108.7L443.2,108.7z M179.2,131.5c2.2-0.6,2.2-0.8,2.2-16.5V99l30.1,15.1
			c16.6,8.3,30.6,15.1,31.2,15.1c0.7,0,0.9-3,0.7-8.4l-0.3-8.4l-5.9-1.6c-9.4-2.6-18.4-8.9-22.4-15.8c-0.5-0.8-6.1-3.5-12.5-6
			c-6.4-2.5-11.8-4.7-12-4.9c-0.2-0.2,5.4-6.3,12.4-13.7c7-7.3,12.6-13.6,12.6-14c-0.1-0.3-4.2-4.5-9.3-9.3l-9.2-8.7l-4.6,6.4
			c-2.5,3.5-6.8,9.4-9.4,13l-4.9,6.7l-0.8-12.6c-0.4-6.9-0.9-12.7-1-12.8c-0.1-0.1-5.9,1.4-12.8,3.5l-12.6,3.7l-0.3,3.7l-0.3,3.7
			l3.8-0.6l3.8-0.6l1,12.9c1,12.5,1.1,13.1,4.4,17.9c6.3,9.1,7.2,21.1,2.4,31.8c-1.8,4-2.1,6.3-1.9,11.6l0.3,6.7l6.5-0.6
			C174.1,132.3,178,131.8,179.2,131.5L179.2,131.5z M354.8,131.8c-0.1-0.4-0.3-1.5-0.3-2.4c0-1-1.9-2.8-4.3-4.3
			c-14.3-8.7-17.1-30.4-5.8-45.2l2.3-3l-2.9-18.4c-1.6-10.1-3.1-18.9-3.3-19.6c-0.5-1.4-13.7-1.8-14.5-0.4
			c-0.3,0.4-1.4,6.2-2.5,12.9c-3.2,18.8-2.8,19-7.2-5.2l-0.7-3.6h-10.1c-8.8,0-10.2,0.2-10.6,1.7c-0.3,0.9-1.9,9.9-3.5,19.9l-3,18.2
			l3,2.7l3,2.7l-4.2,4.5c-3.9,4.1-4.4,5.2-5.5,12.4c-0.7,4.3-1,8.1-0.8,8.4c0.7,0.7,14.9,3.4,17.8,3.4c2.1,0,2.3-0.7,3.8-10.9
			c3-20.1,2-19.5,8.8-5.1l6,12.6l3.8-9.7l3.8-9.7l1.2,7.3c0.7,4,2,12.1,2.9,18l1.7,10.7l9.2,1.6C352.5,132.9,355.2,133,354.8,131.8
			L354.8,131.8z M143,129.2c21.6-10.5,25.7-40,7-49.9c-5.6-3-16.8-3-23.2,0c-6.4,2.9-13.9,10.2-17,16.7c-3.6,7.2-3.8,17.9-0.5,24.1
			c2.3,4.4,6.9,8.7,11.4,10.7C125.3,132.9,137.1,132,143,129.2L143,129.2z M131.2,106.8c-9.7-4.4-9.6-17.9,0.3-22.1
			c4.7-2,5.4-1.7,2.7,1c-3,3-3,6.8,0,9.8c4.2,4.2,11.7,3,14.6-2.3l1.4-2.7l0,4.2c0.1,5.9-2.2,9.7-7.1,11.9
			C138.1,109.1,136.2,109.1,131.2,106.8L131.2,106.8z M378.1,120.6c13.8-6.1,22-22.3,17.8-35c-5.7-17.1-28.7-19.7-43-4.9
			c-11.8,12.2-12,28.4-0.6,38.1C358,123.6,369.5,124.4,378.1,120.6z M366.2,100.3c-4.2-2.2-7.8-7.4-7.8-11.4c0-4.2,3-8.7,7.1-10.6
			c5.2-2.5,7-2.1,4.1,0.8c-6.8,6.8,2.7,16.5,11,11.3c1.7-1.1,3.2-2.7,3.2-3.5c0-0.8,0.4-1.3,1-0.9c1.6,1,1.1,5.6-0.9,8.9
			C379.9,101.1,372.4,103.4,366.2,100.3L366.2,100.3z M260.3,102.3c2.9-0.9,7-2.4,9.2-3.5c5.5-2.7,13.2-8.8,12.9-10
			c-0.1-0.6-3-3.5-6.3-6.6l-6.1-5.6l-4.4,3.4c-4.3,3.3-11.1,5.9-13.4,5.1c-0.6-0.2,2.8-4.5,7.6-9.5c4.8-5,10.5-11,12.6-13.3l3.9-4.1
			l-3.2-3.3c-6.6-6.8-18.5-9.7-29-7c-11.9,3-19,8.2-23.2,16.9c-3.3,6.7-3.7,15.9-1.1,22.7c2.2,5.7,8.8,12.1,14.9,14.5
			C240.6,104.3,252.9,104.5,260.3,102.3L260.3,102.3z M238,84.7c-1.9-0.7-5.1-7.6-5.1-11c0-6.6,5.1-12.9,11.6-14.2
			c3.9-0.8,8.8,0.2,11.5,2.3l2.2,1.7l-9.3,10.7C238,86.7,239.6,85.2,238,84.7z M245.1,71.7c5.9-7.1,6.2-7.7,3-7.7
			c-3.3,0-8,2.4-9.2,4.8c-1.7,3.2-1.2,8.9,0.9,8.8C240,77.5,242.5,74.9,245.1,71.7L245.1,71.7z M210.6,79.1c0-2.9-0.3-5.3-0.8-5.3
			c-0.4,0-2.4,1.7-4.4,3.8l-3.7,3.8l3.7,1.5c2,0.8,4,1.6,4.4,1.6C210.3,84.4,210.6,82,210.6,79.1z M257,29.6c6-3,10.9-5.9,10.9-6.5
			c0-1.3-7.8-11.6-8.8-11.6c-0.4,0-5,5.1-10.2,11.2c-7.5,9-9.2,11.5-8.3,12.6C242.1,36.9,242.6,36.8,257,29.6L257,29.6z"/>
	</g>
</g>
</svg>
